<svg width="88" height="32" viewBox="0 0 88 32" fill="none" xmlns="http://www.w3.org/2000/svg">
<g clip-path="url(#clip0_1597_14022)">
<path d="M36.416 5.42184C36.3144 5.41874 36.2121 5.43158 36.1137 5.46117C34.5954 5.83054 33.0904 6.26432 31.6215 6.80209C30.5239 7.19926 29.453 7.68847 28.4834 8.34699C28.0893 8.61547 27.707 8.90153 27.3482 9.21689C27.2634 9.29235 27.17 9.37176 27.1465 9.49091C27.2611 10.2074 27.9355 10.5935 28.518 10.8929C29.475 11.3385 30.5537 11.5943 31.6088 11.4736C31.2948 11.2035 30.8583 11.1606 30.5262 10.9215C30.3912 10.8191 30.3881 10.6347 30.352 10.4846C30.0277 10.5498 29.7199 10.6753 29.3988 10.7507C29.6948 10.5664 30.0167 10.4306 30.3245 10.2685C31.97 9.55442 33.749 9.24698 35.5131 9.00232C36.7425 8.86649 37.9979 8.82359 39.1873 8.44787C39.0908 8.17779 39.0421 7.78146 38.6974 7.73936C37.9563 7.34775 37.6015 6.54066 37.1744 5.85911C37.0178 5.58387 36.7206 5.43111 36.416 5.42184Z" fill="white"/>
<path d="M51.6392 5.4225C51.4038 5.41885 51.1686 5.48888 51.0002 5.66255C50.7624 5.91356 50.6242 6.23762 50.442 6.52756C50.1814 6.98669 49.8446 7.41252 49.3987 7.69848C49.2841 7.77474 49.1098 7.76042 49.0415 7.89943C48.9394 8.06942 48.8742 8.26171 48.8389 8.45633C50.0298 8.81537 51.2782 8.85344 52.5037 9.00833C54.4476 9.25617 56.4134 9.61681 58.1846 10.5025C58.3346 10.5851 58.4876 10.6677 58.6376 10.7527C58.3149 10.6685 57.9978 10.562 57.6782 10.4683C57.6256 10.6303 57.6201 10.8345 57.4631 10.9362C57.1357 11.1594 56.7079 11.2008 56.4111 11.4717C56.9152 11.54 57.4261 11.4923 57.9239 11.3978C58.8927 11.2071 59.8803 10.8425 60.5877 10.1197L60.5963 10.1228C60.7518 9.91073 60.8366 9.66052 60.868 9.39918C59.7343 8.33714 58.3636 7.55786 56.9261 7.00102C55.3081 6.36952 53.6374 5.88576 51.9542 5.47032C51.8534 5.44103 51.7462 5.42415 51.6392 5.4225Z" fill="white"/>
<path d="M44.0098 0.000108855C43.9417 -0.00247078 43.8738 0.0407431 43.8612 0.135667C43.5817 1.06743 43.333 2.03099 42.8054 2.8587C42.6154 3.16373 42.3413 3.40597 42.032 3.58152C41.2846 4.01365 40.4509 4.25274 39.6344 4.5117C39.5056 4.54585 39.4012 4.63086 39.3086 4.723C39.4028 4.80244 39.5009 4.88346 39.6226 4.92C40.5003 5.20358 41.4094 5.45146 42.1953 5.95746C42.6608 6.24819 42.9333 6.74859 43.161 7.23473H43.168C43.4592 7.9131 43.6579 8.62486 43.8715 9.33024C43.9319 9.53359 44.173 9.41523 44.1769 9.24762C44.3559 8.57084 44.5819 7.90911 44.8308 7.25695L44.8136 7.21018L44.8677 7.19424C45.0153 6.93846 45.1315 6.66285 45.3168 6.43011C45.5437 6.11316 45.8797 5.90664 46.2142 5.72474C46.3359 5.66596 46.4592 5.60714 46.5824 5.54915C47.1673 5.3037 47.7725 5.11466 48.377 4.9264C48.4964 4.87318 48.6951 4.83665 48.6605 4.6611C48.5506 4.56816 48.414 4.51889 48.2806 4.47679C47.4861 4.23134 46.6798 3.98827 45.9575 3.56488C45.6474 3.38695 45.3804 3.13588 45.1935 2.82926C44.6817 2.00791 44.4313 1.06027 44.1597 0.139623C44.1463 0.0510539 44.0779 0.00269027 44.0098 0.000108855Z" fill="white"/>
<path d="M8.41311 6.12515C7.85403 6.12176 7.29484 6.1742 6.74614 6.28457C4.84073 6.67221 3.1229 7.81851 1.9382 9.36668C1.28343 10.2262 0.776253 11.2 0.452012 12.2342C0.115209 13.3082 -0.0371102 14.4418 0.00763981 15.5673C0.0335477 16.1655 0.105006 16.762 0.239257 17.3451C0.337392 17.7828 0.466924 18.2125 0.623942 18.6327L0.632567 18.6367C0.857103 19.261 1.16645 19.852 1.52131 20.4096C1.57391 20.462 1.59987 20.5851 1.68623 20.5828L1.64701 20.5923C2.13219 21.3056 2.72413 21.9428 3.38988 22.4877L3.41265 22.4885C4.03366 23.0104 4.74886 23.4147 5.50019 23.7118C6.5632 24.1391 7.71809 24.3003 8.85725 24.2416C10.7077 24.1717 12.606 23.8039 14.2052 22.8205C14.6951 22.5647 15.1364 22.2009 15.5195 21.7981C15.5219 21.3994 15.5218 21.0006 15.5257 20.6027C15.5249 19.9767 15.536 19.3508 15.5203 18.7257C15.5439 18.3166 15.4802 17.8908 15.6435 17.5024L15.6293 17.5214C15.795 17.2076 16.055 16.9439 16.3721 16.789C16.6603 16.6285 17.0245 16.6262 17.2812 16.4093C17.2789 16.3656 17.2733 16.2782 17.271 16.2345C17.0574 16.2044 16.8423 16.2163 16.628 16.2155C14.0121 16.217 11.3962 16.2147 8.78031 16.2171C8.62486 16.1766 8.43007 16.3235 8.55019 16.4863C8.73547 16.6675 9.01424 16.6929 9.25056 16.7707C9.95714 16.9193 10.6441 17.2522 11.0908 17.8416C11.2314 18.1132 11.3726 18.3983 11.3726 18.7129C11.382 19.6446 11.3648 20.5757 11.3789 21.5075C11.3452 21.9857 11.3428 22.4821 11.1395 22.9253C10.7689 23.336 10.1636 23.1612 9.67998 23.1866C8.84622 23.0611 8.06112 22.6814 7.43305 22.1143C6.84894 21.5908 6.3779 20.9475 6.01126 20.2524C5.68467 19.6217 5.43576 18.9528 5.25362 18.2657C5.15784 17.8654 5.0809 17.461 5.01338 17.0551C4.93016 16.3307 4.88781 15.6014 4.92 14.873C4.9726 13.9579 5.1202 13.0492 5.373 12.1691L5.38392 12.1684C5.66577 11.208 6.10858 10.2961 6.69818 9.49059C7.07973 9.01875 7.50218 8.57312 8.01013 8.2395C8.84625 7.66519 9.91477 7.42364 10.9048 7.66829C11.9733 7.91692 12.8596 8.65652 13.5183 9.51759C13.9462 10.0983 14.2892 10.7385 14.5569 11.4089C14.6747 11.7219 14.7862 12.0372 14.8726 12.3613C14.9323 12.5591 14.9581 12.7847 15.1174 12.9325C15.3804 12.4352 15.3255 11.8474 15.386 11.3032C15.4158 10.7567 15.4292 10.2094 15.43 9.66292C15.4104 9.11244 15.4402 8.54373 15.2643 8.01469C14.2877 8.04011 13.3605 7.68108 12.5165 7.21321C11.2695 6.50754 9.84186 6.13384 8.41311 6.12515Z" fill="white"/>
<path d="M16.6183 11.8231C16.5733 11.8223 16.5283 11.8228 16.4834 11.8244C16.8304 12.1731 17.2998 12.4114 17.5361 12.8642C17.8706 13.5092 17.8722 14.2614 17.8596 14.9716C17.8683 15.5737 17.8604 16.1758 17.8627 16.7779C17.8643 17.4253 17.8627 18.0719 17.8627 18.7185C18.194 18.3896 18.5497 18.0847 18.9265 17.8098C19.4486 17.4309 20.0052 17.1036 20.5846 16.8232C20.5839 16.2314 20.5839 15.6396 20.5839 15.0486C20.5918 14.7102 20.5682 14.3711 20.5949 14.0335C20.6341 13.7158 20.945 13.4813 21.2575 13.5076C21.9099 13.5099 22.5623 13.5012 23.2147 13.5131C23.7588 13.5298 24.2691 13.7768 24.6774 14.1303C25.1751 14.6021 25.5182 15.2171 25.7341 15.8668C25.7553 15.8414 25.7977 15.7889 25.8189 15.7635C25.8966 15.2115 25.8024 14.6475 25.7184 14.1002C25.6084 13.5783 25.4625 13.0644 25.285 12.5624C23.389 12.564 21.4867 12.5838 19.5994 12.3701C18.7319 12.251 17.8746 12.0627 17.0196 11.872C16.8877 11.8398 16.7532 11.8256 16.6183 11.8231Z" fill="white"/>
<path d="M23.9569 16.4551C23.7631 16.4557 23.5666 16.4792 23.3801 16.4949C21.4904 16.7435 19.6729 17.5442 18.1938 18.7588C17.6968 19.198 17.247 19.6914 16.8592 20.2323C16.5381 20.6986 16.2452 21.1872 16.0215 21.709C16.5671 21.3429 17.1371 21.0156 17.7204 20.7137C17.7675 20.6923 17.8154 20.6708 17.8641 20.6502C17.8633 20.7463 17.8633 20.8424 17.8633 20.9393C17.9009 21.4271 17.7989 21.906 17.638 22.3611L17.6599 22.4144L17.5948 22.4342C17.2588 23.1134 16.6551 23.5861 16.1087 24.0817C16.5263 24.0944 16.9267 23.9594 17.3326 23.8808C18.4176 23.6456 19.5293 23.5669 20.637 23.5669C22.3446 23.5685 24.053 23.5638 25.7605 23.5694C25.9764 23.0086 26.1381 22.4279 26.263 21.8401C26.3415 21.3833 26.387 20.9202 26.3838 20.4571C26.3728 20.3388 26.3886 20.1664 26.2496 20.1227C26.0377 20.7447 25.6961 21.3221 25.2368 21.7884C24.7587 22.2555 24.1181 22.5581 23.45 22.5724C22.6924 22.5772 21.9348 22.5764 21.178 22.5732C20.9904 22.5828 20.8411 22.4589 20.7037 22.3484C20.6425 22.2023 20.5743 22.053 20.5845 21.8909C20.5813 21.4779 20.586 21.0656 20.5829 20.6533C20.5876 20.3022 20.5837 19.9512 20.5845 19.6009C20.7054 19.5691 20.8262 19.5381 20.9479 19.5079C21.2117 19.4483 21.4771 19.3927 21.7432 19.341C23.1124 19.0956 24.5035 18.986 25.8931 18.9788C25.9732 18.9732 26.0518 18.9598 26.1303 18.9391C26.0455 18.7024 25.8971 18.4911 25.6859 18.3537C25.4339 18.2036 25.1371 18.1431 24.8937 17.9795C24.5114 17.6491 24.5766 17.0772 24.6653 16.6316C24.4512 16.4913 24.2062 16.4542 23.9569 16.4551Z" fill="white"/>
<path d="M36.2192 12.5601C35.4158 12.56 34.6126 12.5633 33.8094 12.5701C33.6885 12.81 34.0253 12.8695 34.1697 12.9585C34.7468 13.2127 34.8951 13.9197 34.8425 14.4956C34.8448 14.8578 34.8386 15.22 34.8449 15.5823C34.8441 16.5601 34.8394 17.5378 34.8433 18.5157C34.8456 18.8064 34.8441 19.0972 34.8425 19.3879C34.7224 19.2338 34.6023 19.0789 34.4822 18.9248C34.015 18.3092 33.5353 17.7023 33.0674 17.0875C32.7761 16.7133 32.4864 16.3377 32.1975 15.9627C31.9298 15.6156 31.6614 15.27 31.3953 14.9228C30.7892 14.1349 30.1791 13.3508 29.573 12.5629C28.6019 12.5668 27.6299 12.551 26.6587 12.5701L26.6556 12.7511C26.8943 12.9441 27.2374 12.9982 27.4141 13.2746C27.7956 13.7544 27.6684 14.3971 27.6935 14.9635C27.6928 15.4687 27.6865 15.973 27.6927 16.4774C27.6888 16.9302 27.6936 17.3838 27.6904 17.8366C27.6936 18.2782 27.6896 18.7206 27.6919 19.1623C27.6888 19.8073 27.6959 20.4523 27.688 21.0973C27.6794 21.5731 27.7429 22.0609 27.6048 22.524C27.5129 22.7035 27.4172 22.8902 27.2586 23.0197C27.0937 23.1635 26.8754 23.2166 26.6957 23.3373C26.6061 23.3834 26.6462 23.4938 26.6493 23.5717C28.2564 23.5638 29.8643 23.5797 31.4714 23.5638C31.5248 23.3064 31.235 23.2572 31.0701 23.1619C30.7592 23.0292 30.5732 22.7226 30.4633 22.4144C30.3651 21.8766 30.435 21.3277 30.4091 20.7851C30.4154 20.237 30.4099 19.689 30.4099 19.1409C30.4146 18.789 30.4075 18.437 30.413 18.0851C30.4107 17.788 30.4115 17.491 30.4107 17.1948C30.4139 16.792 30.4092 16.3892 30.4123 15.9865L30.4029 15.8245C30.4131 15.8197 30.4327 15.8094 30.4421 15.8038C30.6007 16.0405 30.7821 16.2606 30.954 16.4869C31.1534 16.7419 31.3489 17.0001 31.5491 17.2543C31.915 17.7293 32.2784 18.2059 32.6482 18.6778C32.9568 19.0821 33.2668 19.4856 33.5793 19.8867C34.0527 20.4872 34.5049 21.1077 34.9877 21.7003C35.3811 22.2333 35.7956 22.7496 36.1936 23.2786C36.4198 23.5701 36.6686 23.8434 36.9371 24.096C37.354 24.4527 37.8683 24.7219 38.4194 24.7593C38.344 24.4916 38.1541 24.2802 38.0355 24.0332L37.9821 24.0103L38.0087 23.9784C37.9114 23.6328 37.7685 23.3001 37.701 22.9458C37.6468 22.6352 37.6068 22.3215 37.5856 22.0069C37.5511 21.3778 37.5676 20.747 37.5621 20.1171C37.5652 19.4189 37.5612 18.7206 37.5605 18.0216C37.5691 17.3694 37.5652 14.7179 37.5582 14.2961C37.5385 13.7893 37.7183 13.2087 38.2019 12.9759C38.3707 12.8743 38.6605 12.833 38.6291 12.5709C37.8259 12.5637 37.0225 12.5602 36.2192 12.5601Z" fill="white"/>
<path d="M43.609 10.1988C43.3854 10.2002 43.1618 10.2168 42.9386 10.2533C41.8403 10.4106 40.7899 10.9976 40.1453 11.9222C39.9106 12.2725 39.7323 12.6594 39.6279 13.0685L39.6318 13.0772C39.4371 13.8644 39.54 14.7016 39.8045 15.4594L39.8132 15.4611C39.9969 15.9766 40.2952 16.4453 40.6634 16.8464L40.6752 16.8456C41.1431 17.3143 41.7029 17.6813 42.2478 18.0475C43.3642 18.8641 44.5394 19.5964 45.6307 20.448C45.9346 20.7323 46.1488 21.1072 46.2116 21.5235C46.2202 21.8841 46.1779 22.2455 46.0468 22.5823C45.8639 22.9803 45.5459 23.3116 45.1494 23.4919C44.6933 23.7239 44.1696 23.7031 43.6766 23.6444C43.4418 23.6054 43.2095 23.5539 42.981 23.4911C42.5312 23.3481 42.108 23.1337 41.7179 22.8692C41.5828 22.7627 41.4493 22.6563 41.3182 22.5474L41.1329 22.3822C41.0128 22.2575 40.8935 22.1328 40.7757 22.0057C40.53 21.7181 40.3047 21.4139 40.1006 21.0946C39.7724 20.6124 39.5682 20.0508 39.2141 19.5869C39.0791 20.0746 39.083 20.587 39.0752 21.089C39.0783 21.2423 39.0783 21.3963 39.0933 21.5497C39.1176 22.0016 39.1765 22.4521 39.2754 22.8937C39.4128 23.4521 39.6224 24.0122 40.0204 24.4356C40.6022 24.0789 41.3418 24.1273 41.9628 24.3497C42.9819 24.6802 44.0707 24.7549 45.1322 24.6469C45.6252 24.5984 46.108 24.4745 46.572 24.299C47.2009 24.0321 47.7614 23.5999 48.1524 23.0311C48.5041 22.5021 48.7223 21.8849 48.7985 21.2534L48.8087 21.2598C48.8535 20.9127 48.8676 20.5623 48.866 20.2128C48.8432 19.4693 48.6588 18.725 48.271 18.088C48.0307 17.7051 47.7293 17.3683 47.4105 17.0522C46.6215 16.3849 45.7492 15.8289 44.9076 15.2331C44.1437 14.6993 43.3618 14.1917 42.6144 13.6341C42.1677 13.2687 41.849 12.7039 41.9534 12.1065C42.0303 11.7777 42.1904 11.4544 42.4762 11.2629C42.9731 10.9198 43.6114 10.9103 44.1885 10.9715C44.9257 11.0501 45.6213 11.4273 46.0907 12.0088L46.0986 12.0081C46.4024 12.3814 46.5767 12.8405 46.8554 13.2281C47.3971 13.6261 47.9695 14.0304 48.6195 14.2187C48.6297 13.8866 48.4962 13.5792 48.3871 13.2742C48.2144 12.8246 48.0378 12.3758 47.8399 11.9373C47.595 11.4242 47.3084 10.9317 46.9998 10.4559C46.5578 10.6711 46.061 10.5775 45.604 10.4726C44.9499 10.3278 44.2797 10.1947 43.609 10.1988Z" fill="white"/>
<path d="M54.1074 12.5581C52.4979 12.5756 50.8885 12.5431 49.2799 12.574C49.2649 12.8719 49.6175 12.8894 49.8012 13.026C50.2785 13.3239 50.3892 13.9435 50.3476 14.4686C50.3538 14.9047 50.3406 15.3408 50.3547 15.7776L50.3664 15.8277C50.3452 16.0008 50.3437 16.1764 50.3508 16.3512C50.3484 17.0224 50.3452 17.6936 50.3492 18.3656C50.3476 18.638 50.3319 18.9113 50.3758 19.183L50.3695 19.1305C50.3774 19.1655 50.3932 19.2346 50.401 19.2696C50.3908 19.2839 50.3704 19.3141 50.3594 19.3292C50.3327 19.8757 50.353 20.4238 50.3476 20.9711C50.3483 21.3699 50.3476 21.7694 50.3445 22.1697C50.328 22.5756 50.1937 22.9577 50.0508 23.3326L50.0665 23.3851L50.0186 23.393C49.7289 23.9188 49.3058 24.343 48.8779 24.7529C50.2102 24.7862 51.3462 23.957 52.6236 23.706C53.1158 23.625 53.6112 23.559 54.1121 23.5669C54.2 23.3167 53.8977 23.2524 53.736 23.165C53.3128 22.9784 53.0939 22.5049 53.0688 22.0585C53.0664 21.6637 53.0765 21.269 53.0655 20.875C53.071 20.4889 53.075 20.102 53.0616 19.7167C53.0695 19.3807 53.3395 19.063 53.6858 19.0749C54.7896 19.0765 55.8934 19.0623 56.9965 19.0829C57.0836 19.1306 57.1732 19.1775 57.2713 19.2021C57.4244 19.3792 57.4684 19.6064 57.5155 19.8296L57.4675 19.8805C57.4769 19.9138 57.4958 19.9821 57.5053 20.0154C57.4526 20.1973 57.4817 20.3903 57.4802 20.5778C57.481 21.06 57.4699 21.5429 57.4825 22.0259C57.4605 22.4771 57.2525 22.9616 56.827 23.1578C56.659 23.2555 56.366 23.3008 56.4163 23.5622C58.0234 23.5685 59.6321 23.5749 61.2392 23.5598C61.3412 23.32 61.0374 23.2635 60.889 23.1769C60.465 23.0014 60.2397 22.5406 60.1989 22.0998C60.1989 21.7177 60.206 21.3348 60.1927 20.9535C60.2091 20.3721 60.202 19.789 60.1918 19.2084C60.2107 18.5483 60.2005 17.8867 60.1918 17.2274C60.217 16.3329 60.1879 15.4384 60.1988 14.544C60.1996 14.1818 60.1784 13.7981 60.3574 13.4685C60.4807 13.2024 60.7163 13.0102 60.9848 12.9053C61.1096 12.8449 61.3483 12.7552 61.2336 12.5701C59.6274 12.5566 58.0195 12.5558 56.4132 12.5709C56.3778 12.833 56.6739 12.8743 56.8419 12.9768C57.2517 13.169 57.4408 13.6313 57.4856 14.0618C57.4714 14.8911 57.4856 15.7212 57.4769 16.5505C57.4864 16.7562 57.3631 16.9255 57.2336 17.0709C57.1041 17.1249 56.9729 17.1884 56.8301 17.1813C55.8063 17.1829 54.7833 17.1812 53.7596 17.182C53.4934 17.2098 53.2594 17.0494 53.115 16.8357C53.0271 16.371 53.0875 15.8953 53.0695 15.4266C53.0687 15.263 53.0679 15.1001 53.0663 14.938C53.0687 14.8062 53.0687 14.6743 53.0702 14.5432C53.0223 13.9753 53.1291 13.2739 53.6849 12.9888C53.8498 12.8799 54.2078 12.8345 54.1074 12.5581Z" fill="white"/>
<path d="M63.1944 16.4581C63.0593 16.4571 62.9242 16.4643 62.7894 16.4825C62.6512 16.4944 62.531 16.5651 62.4148 16.6334C62.4839 17.0139 62.5491 17.4429 62.345 17.794C62.2649 17.9473 62.0969 18.0164 61.9885 18.1411C61.6187 18.1769 61.2098 18.4049 61.0269 18.7576C60.9711 18.8251 60.9318 18.988 61.0692 18.9737C62.1832 18.9848 63.2981 19.0467 64.4043 19.1929C64.4027 19.0412 64.4035 18.8903 64.4043 18.7401C64.4043 18.4796 64.4035 18.2198 64.4043 17.9609C64.4043 17.5097 64.4027 17.0593 64.4043 16.6089C64.0056 16.5374 63.5999 16.461 63.1944 16.4581Z" fill="white"/>
<path d="M67.9018 18.0386C67.9002 18.7289 67.8978 19.4191 67.8986 20.1094L67.9222 20.0665C69.0174 20.5097 70.0741 21.0515 71.0601 21.7076C70.7194 20.9156 70.2366 20.1912 69.6753 19.543C69.1626 18.9544 68.5566 18.4548 67.9018 18.0386Z" fill="white"/>
<path d="M64.5692 12.5581C64.0302 12.5587 63.4917 12.565 62.9541 12.5862C62.9565 12.6251 62.962 12.7022 62.9643 12.7404C63.3867 12.9675 63.9197 12.9643 64.2856 13.3115C64.6389 13.5831 64.7527 14.047 64.7017 14.476C64.7087 15.6659 64.6994 16.8558 64.7033 18.0458C64.7072 18.7233 64.6923 19.401 64.7072 20.0785C64.693 20.3542 64.7024 20.6298 64.7033 20.9062C64.6993 21.3328 64.7104 21.7601 64.6907 22.1866C64.5337 22.776 63.9582 23.1089 63.4016 23.2201C63.2249 23.2861 62.9141 23.2877 62.9282 23.5466C63.1229 23.5705 63.3208 23.5728 63.5178 23.5585C63.5704 23.5577 63.6764 23.5561 63.729 23.5554C65.5095 23.584 67.2909 23.5577 69.0722 23.5689C69.1877 23.5617 69.4232 23.6045 69.373 23.4107C69.1555 23.236 68.8587 23.2297 68.6067 23.1327C68.2369 23.0207 67.9143 22.7737 67.7149 22.4409L67.6537 22.4282L67.6724 22.3678C67.5853 22.0262 67.6113 21.6728 67.612 21.3241C67.6113 20.7442 67.6089 20.1642 67.6112 19.5844C67.6104 18.8274 67.6128 18.0712 67.6088 17.315C67.6151 16.4667 67.6104 15.6183 67.6096 14.7699C67.63 14.3902 67.5406 13.9732 67.7565 13.634C67.9983 13.2186 68.4607 13.0096 68.9089 12.9087C69.0872 12.842 69.3801 12.8421 69.3926 12.5903C68.6853 12.5275 67.9732 12.5791 67.2643 12.5625C66.3668 12.5724 65.4675 12.5572 64.5692 12.5581Z" fill="white"/>
<path d="M87.9917 7.11719C87.3157 7.19186 86.6602 7.40551 85.9921 7.5334C84.1731 7.94487 82.3516 8.34764 80.5334 8.76309C80.4282 8.76229 80.2445 8.90994 80.3897 9.00209C80.8152 9.16175 81.3138 9.20233 81.6388 9.56375C82.0784 9.97363 82.131 10.6075 82.1035 11.1746C82.0917 11.7068 82.0957 12.2399 82.1043 12.7721C82.0925 13.6181 82.0941 14.4649 82.1043 15.3117C82.0855 15.8312 82.1035 16.3514 82.0973 16.8717C81.3012 16.1981 80.5082 15.5197 79.7105 14.8477C78.8901 14.1447 78.0635 13.4489 77.2407 12.7483C76.2429 11.8967 75.2387 11.0523 74.2425 10.1992C73.1747 10.3557 72.1086 10.5217 71.0401 10.675C70.8729 10.729 70.5243 10.6528 70.5557 10.9236C70.825 11.1675 71.2411 11.1008 71.5512 11.278C72.0968 11.5186 72.381 12.1366 72.3252 12.7196C72.3182 13.5362 72.3182 14.3537 72.323 15.1703C72.3214 15.8622 72.3159 16.5547 72.323 17.2466C72.319 17.8829 72.3174 18.5192 72.3214 19.1555C72.319 19.7147 72.3189 20.2739 72.3189 20.8339C72.3425 21.2788 72.315 21.7354 72.1148 22.1413C71.895 22.5512 71.5543 22.8944 71.1343 23.0914C70.9498 23.1963 70.7277 23.2487 70.5785 23.4059C70.5055 23.599 70.7598 23.5744 70.8752 23.5792C71.3525 23.5689 71.8315 23.5951 72.3088 23.5649H72.3536C73.6113 23.5951 74.8713 23.5688 76.1306 23.5776C76.8168 23.5625 77.5061 23.6077 78.1907 23.5545C78.3186 23.406 78.1066 23.3075 77.9999 23.2558C77.5932 23.0763 77.1897 22.8586 76.9102 22.4988C76.5805 22.0762 76.4274 21.5345 76.4745 20.9984C76.4753 20.567 76.4729 20.1348 76.4745 19.7027C76.4753 18.9385 76.4736 18.1736 76.4736 17.4087C76.4744 16.7661 76.476 16.1235 76.4736 15.4817C76.476 15.0638 76.4729 14.6468 76.4745 14.2297C76.8168 14.5157 77.1513 14.8096 77.4951 15.0931C78.0337 15.5546 78.5723 16.0162 79.1163 16.4714C80.1087 17.3229 81.1104 18.1625 82.1004 19.0156C82.1004 19.0704 82.0996 19.1801 82.0989 19.2349C82.1232 19.8521 82.186 20.4765 82.3705 21.0675C82.4702 21.4416 82.6091 21.8053 82.7866 22.1501C82.9876 22.5544 83.2341 22.9373 83.5309 23.2772C84.1338 23.9985 84.9134 24.5689 85.777 24.9287C85.9222 24.9875 86.157 25.0495 86.223 24.8486C86.2866 24.0566 86.2426 23.2582 86.2458 22.4639C86.2662 21.579 86.2441 20.6932 86.252 19.8083C86.2449 18.8488 86.2701 17.8877 86.2363 16.9297C86.2724 15.8097 86.2488 14.6865 86.2464 13.5657C86.2637 12.2892 86.2464 11.0118 86.2544 9.73527C86.285 8.82098 86.8903 8.02113 87.6369 7.55167C87.7704 7.42775 88.0513 7.34516 87.9917 7.11719Z" fill="white"/>
<path d="M20.7108 27.1364C19.6344 27.1443 18.558 27.1301 17.4824 27.1436C17.4966 27.3445 17.7369 27.3286 17.875 27.3993C18.2056 27.4931 18.4953 27.7966 18.4866 28.158C18.489 29.0866 18.4882 30.0151 18.4874 30.9437C18.5008 31.3091 18.2118 31.6212 17.8765 31.715C17.7337 31.7833 17.5084 31.7722 17.4746 31.9684C18.5533 31.9938 19.6328 31.97 20.7123 31.9811C20.8434 31.962 21.0217 32.0272 21.108 31.8882C20.9432 31.7961 20.7626 31.7428 20.5875 31.6776C20.2947 31.5624 20.0647 31.2686 20.0764 30.9429C20.0717 30.0684 20.0787 29.1937 20.0732 28.3191C20.0607 28.0785 20.1039 27.8211 20.2821 27.6464C20.4972 27.3969 20.8489 27.3914 21.1103 27.2183C21.0098 27.0975 20.8435 27.1499 20.7108 27.1364Z" fill="white"/>
<path d="M27.4096 27.126C26.5883 27.1593 25.7655 27.1203 24.9443 27.1458L24.9663 27.2729C25.3023 27.404 25.6816 27.6017 25.72 28.0124C25.7467 28.9894 25.7255 29.9681 25.731 30.9459C25.7443 31.3002 25.4696 31.6068 25.1462 31.7061C24.9915 31.7736 24.7834 31.7769 24.7041 31.9524C25.2544 32.0104 25.8103 31.9626 26.3638 31.9801C26.5224 31.965 26.714 32.0247 26.8435 31.9016C26.6676 31.757 26.4281 31.6744 26.3198 31.4599C26.2012 31.2565 26.1965 31.0134 26.1981 30.7855C26.2036 29.9244 26.1934 29.0641 26.2028 28.2038C26.3826 28.547 26.4909 28.9291 26.6958 29.2572L26.6731 29.3287C26.6974 29.3612 26.7453 29.4264 26.7697 29.459C27.1238 30.3121 27.5148 31.1493 27.8759 32C28.1051 31.8864 28.2323 31.6521 28.3336 31.4265C28.7945 30.3835 29.2529 29.339 29.7169 28.2968C29.7192 29.1523 29.7153 30.0078 29.7185 30.8633C29.7248 31.1334 29.6729 31.4297 29.4735 31.6243C29.3503 31.745 29.1234 31.7712 29.0991 31.9714C30.0451 31.9889 30.9919 31.9722 31.9379 31.9809C32.069 31.9595 32.2543 32.0326 32.3359 31.8856C32.0957 31.7435 31.7981 31.7221 31.583 31.5354C31.4111 31.3924 31.2996 31.1731 31.3067 30.9467C31.3043 30.0174 31.3036 29.0879 31.306 28.1594C31.2989 27.8416 31.4857 27.5208 31.784 27.4064C31.9096 27.3381 32.0973 27.3189 32.1209 27.1458C31.3217 27.1283 30.5216 27.1466 29.7224 27.1355C29.329 28.0006 28.9554 28.8743 28.5691 29.7417C28.1774 28.8727 27.8052 27.9934 27.4096 27.126Z" fill="white"/>
<path d="M36.4609 27.1367C36.3511 27.1363 36.2407 27.1405 36.1453 27.2019C36.2732 27.3044 36.4256 27.3647 36.5724 27.4346C36.8409 27.5617 36.9979 27.8668 36.9916 28.1615C36.9939 29.0877 36.9924 30.0147 36.9916 30.9417C37.0065 31.3039 36.7232 31.6137 36.3926 31.7106C36.249 31.7837 36.0071 31.767 35.9844 31.9736C37.1856 31.9815 38.3867 31.9815 39.5879 31.9744C39.5753 31.7893 39.3767 31.79 39.2471 31.7336C38.9292 31.6526 38.6301 31.4017 38.5885 31.0585C38.5673 30.732 38.5861 30.4047 38.5791 30.0782C39.1098 30.0782 39.6625 30.1045 40.1626 29.8932C40.6022 29.7208 41.0332 29.4157 41.1997 28.951C41.3457 28.5562 41.2059 28.1027 40.9186 27.812C40.4656 27.3433 39.7983 27.1471 39.164 27.1392C38.2996 27.1352 37.4344 27.1415 36.57 27.1367C36.5341 27.1375 36.4976 27.1369 36.4609 27.1367ZM38.5814 27.4759C39.0391 27.5021 39.4458 27.8373 39.5722 28.2814C39.7034 28.7008 39.5502 29.1782 39.2268 29.4658C39.1294 29.5142 39.0406 29.5755 38.9519 29.6374C38.831 29.6787 38.7078 29.708 38.5822 29.7263C38.5783 28.9757 38.5798 28.2258 38.5814 27.4759Z" fill="white"/>
<path d="M47.4655 27.0226C47.5353 27.1838 47.606 27.3459 47.6735 27.5095C47.4882 27.9154 47.3076 28.323 47.1341 28.7336C47.0996 28.8107 47.0643 28.887 47.0297 28.964C46.6945 29.7179 46.3671 30.4749 46.0303 31.2279C45.9314 31.4527 45.7484 31.6449 45.5105 31.7124C45.3645 31.7807 45.1401 31.772 45.0977 31.9674C45.6825 31.9928 46.269 31.9705 46.8539 31.9809C46.9858 31.9618 47.1647 32.0278 47.2511 31.888C47.0242 31.7228 46.6018 31.7584 46.5429 31.4208C46.5586 31.0475 46.7832 30.7259 46.9206 30.3883C47.5965 30.3994 48.2725 30.3874 48.9492 30.3945C49.0654 30.6845 49.2201 30.9601 49.308 31.2612C49.3661 31.4383 49.2681 31.6425 49.0883 31.6933C48.9305 31.7783 48.6729 31.7561 48.6289 31.9738C49.6967 31.9777 50.7652 31.9912 51.8329 31.9665C51.7866 31.7719 51.5613 31.7791 51.4144 31.71C51.1506 31.6377 50.9693 31.4089 50.872 31.1611C50.2667 29.7813 49.6582 28.4023 49.0514 27.0226C48.5222 27.0218 47.9938 27.0218 47.4655 27.0226ZM47.9294 28.0806C48.1987 28.6939 48.4696 29.3055 48.7381 29.9196H47.1208C47.3893 29.3063 47.6585 28.6931 47.9294 28.0806Z" fill="white"/>
<path d="M58.4699 27.1372C57.93 27.1345 57.3907 27.2639 56.9226 27.5419C56.2992 27.901 55.8157 28.5397 55.7277 29.2705C55.6657 29.6756 55.7575 30.0822 55.898 30.4603C55.9161 30.4866 55.9538 30.539 55.9727 30.5652C56.3974 31.4096 57.3229 31.9109 58.2384 31.9696C59.0344 32.0221 59.9146 31.8314 60.4657 31.207C60.6581 30.9711 60.8645 30.6963 60.8511 30.3746C60.658 30.5668 60.5403 30.8257 60.3197 30.9909C59.6618 31.5502 58.6003 31.4739 57.9942 30.8718C57.1816 30.0862 57.2931 28.5548 58.2062 27.8963C58.7808 27.4848 59.6359 27.5737 60.1289 28.0781C60.3605 28.2886 60.483 28.5841 60.6652 28.8343C60.7366 28.3657 60.706 27.8835 60.6149 27.4204C60.4281 27.4362 60.2451 27.4871 60.0575 27.4919C59.8392 27.4482 59.6382 27.345 59.427 27.2814C59.1179 27.1882 58.7938 27.1389 58.4699 27.1372Z" fill="white"/>
<path d="M65.1069 27.1379C65.1053 27.6249 65.1092 28.1111 65.1045 28.598C65.1987 28.6075 65.293 28.5987 65.3158 28.4851C65.4186 28.2595 65.5041 28.0062 65.7247 27.868C66.0984 27.5915 66.5852 27.7012 67.0162 27.6813C67.0154 28.7696 67.0177 29.8569 67.0154 30.9452C67.0287 31.3146 66.7328 31.6275 66.3945 31.7189C66.2547 31.7832 66.0388 31.7793 65.9995 31.9652C67.2102 31.9795 68.4254 32.0057 69.6345 31.9517C69.4696 31.6912 69.088 31.7578 68.8815 31.5362C68.4223 31.1541 68.6735 30.4973 68.5942 29.9857C68.5935 29.9499 68.5919 29.8793 68.5904 29.8435C68.6225 29.1238 68.5943 28.4018 68.6045 27.6813C69.0693 27.6956 69.6173 27.5844 69.9863 27.9506C70.2226 28.1269 70.192 28.5082 70.462 28.6433C70.5539 28.1492 70.4801 27.6384 70.5029 27.1379C68.7042 27.1371 66.9056 27.1387 65.1069 27.1379Z" fill="white"/>
</g>
<defs>
<clipPath id="clip0_1597_14022">
<rect width="88" height="32" fill="white"/>
</clipPath>
</defs>
</svg>
