<svg width="137" height="32" viewBox="0 0 137 32" fill="none" xmlns="http://www.w3.org/2000/svg">
<path d="M76.312 0.561181C76.8844 0.0388107 77.7429 -0.15466 78.4869 0.0775048C78.7731 0.17424 79.0211 0.348363 79.2882 0.522487C79.4981 0.657916 79.7461 0.715957 79.9369 0.870733C80.0323 0.948122 79.956 1.08355 79.956 1.18029C80.204 1.78004 80.3375 2.43784 80.1277 3.0763C79.956 3.28911 79.6507 3.34715 79.4027 3.44389C79.3645 3.71475 79.4599 3.96626 79.4981 4.23712C79.4409 4.27581 79.4027 4.31451 79.3455 4.3532C79.7079 4.33385 80.0704 4.25647 80.4329 4.17908C80.5665 4.04365 80.7763 4.12104 80.948 4.10169C80.9671 3.83083 81.0625 3.57932 81.0625 3.30846C81.1006 3.30846 81.177 3.28911 81.2151 3.26977C81.2342 3.46324 81.2151 3.65671 81.2723 3.85018C81.3677 3.92757 81.5204 3.88887 81.6348 3.90822C81.6348 3.98561 81.6348 4.063 81.6539 4.14038C83.867 4.12104 86.0991 4.14038 88.3122 4.14038C88.3122 4.25647 88.3122 4.37255 88.3122 4.46928C88.3694 4.46928 88.4457 4.46928 88.522 4.46928C88.522 4.04365 88.522 3.63736 88.522 3.21173C88.5793 3.21173 88.7128 3.21173 88.77 3.21173C88.77 3.55997 88.751 3.88887 88.77 4.23712C88.7891 4.25647 88.8273 4.27581 88.8654 4.27581C88.8654 4.31451 88.8845 4.39189 88.8845 4.43059C88.9608 4.3532 89.0562 4.29516 89.1707 4.33385C89.1898 4.39189 89.2089 4.44994 89.2279 4.52732C89.1516 4.60471 89.1135 4.70145 89.1516 4.81753C89.7621 4.83688 90.3726 4.81753 91.0022 4.81753C91.0594 4.74014 91.1548 4.70145 91.2502 4.66275C91.2884 4.6821 91.3456 4.72079 91.3647 4.74014C91.6699 4.74014 91.9561 4.74014 92.2614 4.74014C92.2995 4.89492 92.2995 5.04969 92.2804 5.18512C91.9752 5.18512 91.6699 5.18512 91.3647 5.18512C91.3456 5.20447 91.2884 5.26251 91.2502 5.28186C91.1548 5.22382 91.0785 5.18512 90.9831 5.12708C90.4298 5.12708 89.8766 5.12708 89.3233 5.12708C88.999 5.22382 88.6556 5.20447 88.3313 5.14643C88.3313 5.26251 88.3313 5.39794 88.3313 5.51402C87.4155 5.51402 86.5188 5.51402 85.6031 5.51402C85.4886 5.61076 85.3741 5.6688 85.2215 5.68815C85.2788 5.97835 84.9544 6.05574 84.84 6.26856C84.7636 6.38464 84.6492 6.46203 84.5347 6.50072C84.4393 7.10048 84.6492 7.66154 84.8018 8.22261C84.6301 8.2613 84.4393 8.31934 84.2676 8.35804C84.1722 8.74498 84.0768 9.15127 84.0005 9.53821C83.9242 9.88645 83.6571 10.1767 83.3328 10.3121C83.1038 10.5829 82.7986 10.8538 82.4361 10.8732C82.3026 10.9118 82.2072 10.8151 82.1118 10.7377C81.6348 10.7764 81.196 10.5443 80.7763 10.3508C80.3184 10.138 79.8987 9.86711 79.4599 9.6156C79.4981 9.88645 79.3645 10.1186 79.2691 10.3508C79.479 10.4475 79.7652 10.5249 79.8796 10.7571C79.956 10.9312 80.0323 11.1247 80.0323 11.3375C80.0132 12.034 79.9369 12.7305 79.8987 13.427C79.9178 13.93 79.6698 14.433 79.3264 14.8006C79.0974 14.7813 78.9067 14.6845 78.6968 14.5878C78.6205 14.7619 78.4488 14.936 78.5442 15.1488C78.6205 15.4004 78.6205 15.6712 78.735 15.9034C79.3836 16.5999 79.9369 17.3738 80.3375 18.2444C80.7382 19.0763 81.0434 19.9469 81.3677 20.8175C81.425 20.8175 81.5394 20.7982 81.5967 20.7982C81.673 21.0497 81.5967 21.3399 81.7493 21.5721C81.8828 21.7849 81.8447 22.0364 81.8447 22.2879C81.8065 22.8683 81.7684 23.4487 81.7111 24.0291C81.673 24.4354 81.5776 24.8417 81.5204 25.248C81.5394 25.5576 81.673 25.8671 81.6539 26.1767C81.6348 26.4669 81.6348 26.7764 81.4059 26.9892C81.425 27.647 81.2533 28.3048 81.4822 28.9433C81.7875 29.3689 82.1309 29.7752 82.4933 30.1428C82.894 30.3363 83.3709 30.375 83.7143 30.7232C83.8479 30.936 83.7716 31.1875 83.7334 31.4197C82.9131 31.5358 82.0927 31.5358 81.2723 31.4197C80.948 31.3423 80.6428 31.2069 80.3184 31.1682C79.8796 31.1875 79.3645 31.3617 78.9639 31.0521C78.9257 30.5297 79.1165 30.0267 79.2119 29.5237C79.2501 29.3496 79.4218 29.2335 79.4027 29.0594C79.3645 28.4596 79.3264 27.8405 79.2882 27.2408C79.2119 27.2021 79.0784 27.1634 79.0974 27.0473C79.0974 26.7571 79.0021 26.4669 78.9257 26.196C78.7922 25.4608 78.735 24.7063 78.7159 23.9518C78.6968 23.7389 78.8303 23.5842 78.983 23.4487C79.0211 23.1198 79.0593 22.7716 79.0784 22.4427C79.0211 22.2686 78.8876 22.1331 78.8113 21.9784C78.4679 22.017 77.9718 22.0944 77.762 21.7268C77.2659 20.9723 76.7508 20.1984 76.2548 19.4439C76.0449 19.4245 75.7969 19.4439 75.6061 19.3085C75.3963 19.0763 75.2627 18.7667 75.1292 18.4765C75.072 18.7087 75.0338 18.9602 74.9003 19.1537C74.7858 19.3472 74.595 19.4826 74.4615 19.6567C74.3279 19.9663 74.2134 20.2758 74.099 20.5854C73.9654 20.9723 73.7746 21.3592 73.7365 21.7849C73.7174 21.9977 73.6793 22.1912 73.6029 22.3846C73.5076 22.5394 73.3359 22.5975 73.1832 22.6748C73.0688 22.9264 72.9924 23.1779 72.8207 23.3907C72.7063 23.5261 72.5155 23.5648 72.4392 23.7389C72.3629 23.9711 72.2484 24.1839 72.153 24.3967C72.1149 24.6289 72.2675 24.8804 72.1912 25.1126C72.0576 25.693 71.7714 26.2347 71.5043 26.7571C71.3708 27.144 71.2754 27.5503 71.0846 27.9179C71.0083 28.0727 70.8175 28.1114 70.6649 28.1307C70.4932 28.5563 70.3024 28.9626 70.188 29.4076C70.1307 29.8333 70.1307 30.2782 70.1498 30.7039C70.1498 30.8973 70.2643 31.0521 70.3406 31.2262C70.4169 31.4584 70.3597 31.6906 70.3215 31.9227C69.5775 32.0195 68.8143 32.0969 68.0894 31.8647C68.0131 31.8067 68.0321 31.7099 68.0131 31.6325C67.9558 31.2843 67.9177 30.9167 68.0321 30.5878C68.2801 29.6785 68.49 28.7692 68.738 27.8599C68.6426 27.7631 68.5091 27.6857 68.5091 27.531C68.49 27.2794 68.5091 27.0086 68.5663 26.7571C68.6808 26.3314 68.986 26.0025 69.1387 25.5963C69.1959 25.4221 69.1768 25.248 69.1959 25.0739C69.1959 24.6676 69.4248 24.3387 69.5965 23.9904C69.7682 23.7002 69.9018 23.3907 70.1307 23.1392C70.2834 23.0037 70.2833 22.7909 70.3978 22.6168C70.5123 22.404 70.7031 22.2299 70.7031 21.9784C70.7412 21.6688 70.6268 21.3592 70.6649 21.0497C70.7412 20.1404 70.9129 19.2504 71.0656 18.3411C70.9892 18.2444 70.8748 18.1476 70.8366 18.0122C70.8557 17.9155 70.8748 17.8381 70.8939 17.7414C70.8366 17.6446 70.7794 17.5479 70.7221 17.4511C70.7985 17.3351 70.8748 17.1996 70.9511 17.0836C70.8748 17.0255 70.7794 16.9481 70.7031 16.8901C70.7985 16.5999 70.7603 16.1742 71.1037 16.0388C71.1419 16.0582 71.2373 16.0775 71.2754 16.0969C71.2182 15.5938 71.2182 15.0715 71.1609 14.5684C71.0274 14.0267 71.0083 13.4657 71.0656 12.9239C71.2563 12.6337 71.6188 12.5177 71.9431 12.4983C71.5234 12.4016 71.1037 12.3629 70.7031 12.2274C70.684 11.8792 70.7412 11.531 70.7985 11.1827C70.9702 10.5056 70.8939 9.80907 70.9892 9.11257C71.0846 8.9191 71.3326 8.88041 71.5425 8.9191C71.7905 8.9578 72.0385 8.88041 72.2866 8.80302C72.2866 8.70628 72.3056 8.5902 72.2866 8.49347C72.1339 7.81632 72.1721 7.11983 72.2866 6.46203C72.4392 5.61076 72.7826 4.77884 73.4122 4.17908C73.8319 3.77279 74.4424 3.57932 75.0147 3.59867C75.2055 3.59867 75.32 3.79214 75.4726 3.90822C75.5489 3.83083 75.6252 3.75344 75.6825 3.67605C75.5871 3.34715 75.4344 2.99891 75.4535 2.65066C75.4917 1.87678 75.7397 1.08355 76.312 0.561181ZM82.2644 6.03639C82.3026 6.07509 82.3026 6.07509 82.2644 6.03639ZM82.5315 6.07509C82.5506 6.21052 82.5887 6.34595 82.5124 6.46203C82.417 6.50072 82.3026 6.50072 82.2072 6.55876C82.4743 6.55876 82.7414 6.57811 83.0085 6.55876C83.2183 6.50072 83.142 6.22986 83.142 6.07509C83.0085 5.92031 82.7223 6.01705 82.5315 6.07509ZM81.8638 6.88766C82.0546 7.10048 82.1499 7.42938 82.3216 7.6422C82.5697 7.3133 82.7604 6.96505 83.0466 6.67485C82.7032 6.6555 82.3598 6.69419 82.0164 6.6555C81.9592 6.73289 81.921 6.81027 81.8638 6.88766Z" fill="white"/>
<path d="M135.932 17.0255C136.332 16.8514 136.847 17.0836 136.962 17.5092C137.076 17.8962 136.867 18.3411 136.485 18.4572C136.122 18.5927 135.665 18.4185 135.531 18.0316C135.378 17.6833 135.55 17.1803 135.932 17.0255ZM135.817 17.2577C135.512 17.5286 135.55 18.0703 135.894 18.2831C136.103 18.4379 136.39 18.3992 136.618 18.3025C136.485 18.1477 136.37 17.9736 136.275 17.7994C136.237 17.7994 136.142 17.7994 136.103 17.7801C136.084 17.9349 136.161 18.1283 136.008 18.2251C135.951 17.9155 135.989 17.606 135.97 17.2964C136.161 17.2964 136.409 17.219 136.561 17.3738C136.676 17.5286 136.561 17.7414 136.39 17.7994C136.466 17.8962 136.523 18.0122 136.599 18.109L136.638 18.0122C136.638 18.0703 136.618 18.1864 136.599 18.2638C136.924 18.0703 136.962 17.5673 136.714 17.2964C136.485 17.0449 136.046 17.0255 135.817 17.2577ZM136.084 17.3931C136.084 17.4899 136.084 17.606 136.084 17.7027C136.218 17.6833 136.485 17.7414 136.485 17.5286C136.447 17.3544 136.199 17.4125 136.084 17.3931Z" fill="white"/>
<path d="M0 18.8826C0.0190781 17.9152 0.877594 17.0833 1.81242 17.064C3.43406 17.064 5.07478 17.064 6.7155 17.064C7.65033 17.064 8.48976 17.8959 8.547 18.8439C6.39117 18.8439 4.25442 18.8439 2.09859 18.8439C2.09859 20.2949 2.09859 21.7653 2.09859 23.2163C4.25442 23.2163 6.39117 23.2163 8.547 23.2163C8.50884 23.8354 8.16544 24.4352 7.63125 24.7447C7.30692 24.9382 6.94444 25.0156 6.58195 25.0156C4.97939 25.0156 3.37683 25.0156 1.79334 25.0156C0.858515 24.9963 0.0190781 24.145 0.0190781 23.197C0 21.7653 0 20.3336 0 18.8826Z" fill="white"/>
<path d="M10.951 17.1414C11.1609 17.0833 11.3898 17.064 11.6188 17.064C13.2786 17.064 14.9193 17.064 16.5791 17.064C17.5139 17.1027 18.3152 17.9152 18.3533 18.8632C18.3533 20.2949 18.3533 21.7459 18.3533 23.1776C18.3343 24.145 17.4757 25.0156 16.5218 25.0156C14.8048 25.0156 13.0878 25.0156 11.3707 25.0156C10.4359 24.9963 9.59647 24.145 9.59647 23.197C9.59647 21.7846 9.59647 20.3723 9.59647 18.9406C9.55832 18.1281 10.1497 17.3542 10.951 17.1414ZM11.4852 18.8052C11.4852 20.3143 11.4852 21.8233 11.4852 23.3324C13.1259 23.3324 14.7857 23.3324 16.4264 23.3324C16.4264 21.8233 16.4264 20.3143 16.4264 18.8052C14.7666 18.8052 13.1259 18.8052 11.4852 18.8052Z" fill="white"/>
<path d="M19.7842 22.9068C19.7842 20.9527 19.7842 18.9987 19.7842 17.064C20.3565 17.0833 20.9479 17.3348 21.2914 17.8185C21.5394 18.1474 21.6729 18.5537 21.692 18.96C21.692 20.411 21.692 21.8814 21.692 23.3324C23.3327 23.3131 24.9734 23.3324 26.6332 23.3324C26.6332 21.2429 26.6332 19.1728 26.6332 17.0833C27.2628 17.0833 27.9115 17.0833 28.541 17.0833C28.541 19.1341 28.541 21.1655 28.541 23.2163C28.522 24.1837 27.7016 25.0156 26.7477 25.0543C25.0497 25.0736 23.3518 25.0543 21.6538 25.0543C20.9098 25.0543 20.1848 24.5706 19.8986 23.8548C19.8033 23.5452 19.7842 23.2357 19.7842 22.9068Z" fill="white"/>
<path d="M30.1621 17.0643C31.1923 16.9869 32.2798 17.2771 33.0811 17.9736C34.6073 19.444 36.1526 20.895 37.6789 22.346C37.6789 21.2432 37.6789 20.1211 37.6789 19.0183C37.6598 18.3218 38.0414 17.6447 38.6519 17.2964C38.938 17.1223 39.2624 17.0643 39.5867 17.0449C39.6058 19.6955 39.5867 22.3654 39.5867 25.0159C38.9762 25.0159 38.3657 25.0159 37.7361 25.0159C35.8474 23.1973 33.9587 21.3787 32.0699 19.56C32.0699 21.3787 32.0699 23.1973 32.0699 25.0159C31.4403 25.0159 30.7917 25.0159 30.1621 25.0159C30.1621 22.3847 30.1621 19.7342 30.1621 17.0643Z" fill="white"/>
<path d="M40.1787 18.8056C40.1787 17.9157 40.9037 17.0451 41.8194 17.0838C44.2423 17.0838 46.6653 17.0838 49.0882 17.0838C49.0882 17.5287 48.8974 17.9737 48.6112 18.3026C48.2869 18.6509 47.81 18.8056 47.3521 18.8056C46.7607 18.8056 46.1502 18.8056 45.5587 18.8056C45.5587 20.8758 45.5587 22.9653 45.5587 25.0354C44.9101 25.0354 44.2805 25.0354 43.6318 25.0354C43.6318 22.9653 43.6318 20.8758 43.6318 18.8056C42.4872 18.8056 41.3425 18.8056 40.1787 18.8056Z" fill="white"/>
<path d="M49.7559 17.0835C52.2933 17.0835 54.8306 17.0835 57.3871 17.0835C57.368 17.6446 57.1009 18.225 56.6431 18.5345C56.3569 18.728 55.9944 18.8247 55.651 18.8247C54.3346 18.8247 52.9991 18.8247 51.6828 18.8247C51.6828 19.2891 51.6828 19.734 51.6828 20.1984C53.2853 20.1984 54.8879 20.1984 56.5095 20.1984C56.5095 20.8755 56.1089 21.5527 55.4793 21.8235C55.2504 21.9203 54.9833 21.9589 54.7353 21.9589C53.7241 21.9589 52.713 21.9589 51.7018 21.9589C51.7018 22.4233 51.7018 22.8876 51.7018 23.3326C53.6096 23.3326 55.5175 23.3326 57.4443 23.3326C57.4443 24.2032 56.7575 25.0351 55.8799 25.0545C53.8386 25.0545 51.8163 25.0545 49.7749 25.0545C49.7749 22.3846 49.7559 19.734 49.7559 17.0835Z" fill="white"/>
<path d="M58.57 17.0835C60.4778 17.0835 62.3856 17.0835 64.3125 17.0835C64.9803 17.1028 65.7243 17.1802 66.2394 17.6639C66.7354 18.1669 66.7927 18.9408 66.7927 19.618C66.7736 20.1984 66.7927 20.7981 66.5637 21.3205C66.2585 21.8429 65.7243 22.2105 65.1329 22.3652C65.9723 23.3326 66.7927 24.3193 67.6321 25.2866C66.9453 25.2866 66.2585 25.2866 65.5908 25.2866C65.3809 25.2866 65.171 25.2866 64.9993 25.1899C64.7895 25.0738 64.6559 24.861 64.5033 24.6869C63.4731 23.41 62.4619 22.1137 61.4317 20.8368C62.2902 20.8368 63.1678 20.8368 64.0263 20.8368C64.2744 20.8175 64.5415 20.8175 64.7322 20.624C64.8849 20.3725 64.8467 20.0629 64.8658 19.7727C64.8467 19.5212 64.8849 19.231 64.7132 19.0182C64.5224 18.8634 64.2553 18.8441 64.0263 18.8441C62.8435 18.8441 61.6797 18.8441 60.4969 18.8441C60.4969 20.9142 60.4969 23.0037 60.4969 25.0738C59.8482 25.0932 59.2187 25.0738 58.57 25.0738C58.5509 22.3846 58.57 19.734 58.57 17.0835Z" fill="white"/>
<path d="M85.0121 18.2251C85.2983 17.5479 85.9851 17.0836 86.7101 17.0836C88.2745 17.0836 89.8389 17.0836 91.3842 17.0836C91.7658 17.0643 92.1664 17.1223 92.5098 17.3158C93.044 17.606 93.3874 18.1864 93.4828 18.7861C91.2507 18.8055 88.9995 18.7861 86.7673 18.7861C86.7673 19.2505 86.7673 19.6954 86.7673 20.1598C88.2936 20.1598 89.8008 20.1598 91.327 20.1598C91.6704 20.1598 92.0329 20.1404 92.3763 20.2565C93.1394 20.508 93.6736 21.3013 93.6354 22.1138C93.6164 22.6942 93.7118 23.3133 93.4828 23.8744C93.1967 24.5516 92.4908 25.0352 91.7658 25.0159C90.0678 25.0159 88.3699 25.0159 86.6529 25.0159C85.7371 24.9965 84.9167 24.2033 84.8595 23.294C87.1489 23.294 89.4192 23.294 91.7086 23.294C91.7086 22.8297 91.7086 22.346 91.7086 21.8817C90.0488 21.8817 88.3699 21.8817 86.7101 21.8817C85.699 21.901 84.7832 20.9724 84.8404 19.947C84.8786 19.3859 84.7641 18.7668 85.0121 18.2251Z" fill="white"/>
<path d="M95.0473 17.1995C95.3717 17.0447 95.7342 17.0834 96.0585 17.0834C98.1952 17.0834 100.332 17.0834 102.45 17.0834C102.45 17.7605 102.049 18.457 101.381 18.6892C100.962 18.844 100.523 18.8053 100.084 18.8053C99.7596 18.8053 99.4544 18.8053 99.1301 18.8053C99.1301 20.8754 99.1301 22.9649 99.1301 25.035C98.5005 25.035 97.8518 25.035 97.2222 25.035C97.2222 22.9649 97.2222 20.8754 97.2222 18.8053C96.1539 18.8246 95.0664 18.8053 93.998 18.8053C94.0362 18.1281 94.4178 17.451 95.0473 17.1995Z" fill="white"/>
<path d="M103.213 17.0835C105.121 17.0835 107.009 17.0835 108.917 17.0835C109.566 17.1028 110.291 17.1609 110.825 17.6059C111.359 18.0895 111.436 18.8634 111.436 19.5406C111.416 20.121 111.436 20.7401 111.226 21.3011C110.92 21.8429 110.386 22.2105 109.795 22.3652C110.348 22.9843 110.901 23.6228 111.455 24.2419C111.684 24.5128 111.932 24.7449 112.141 25.0545C111.436 25.0545 110.711 25.0545 110.005 25.0545C109.719 25.0545 109.413 24.9384 109.242 24.7062C108.192 23.41 107.143 22.1331 106.094 20.8368C106.971 20.8368 107.849 20.8368 108.726 20.8368C108.994 20.8175 109.356 20.7981 109.432 20.4886C109.528 20.0629 109.528 19.618 109.451 19.1923C109.394 18.8828 109.032 18.8441 108.784 18.8247C107.563 18.8247 106.361 18.8247 105.14 18.8247C105.14 20.8949 105.14 22.9843 105.14 25.0545C104.491 25.0545 103.862 25.0545 103.213 25.0545C103.213 22.3846 103.213 19.734 103.213 17.0835Z" fill="white"/>
<path d="M113.572 17.0835C114.202 17.0835 114.85 17.0835 115.48 17.0835C115.499 19.734 115.48 22.4039 115.48 25.0545C114.85 25.0545 114.202 25.0545 113.572 25.0545C113.572 22.3846 113.572 19.734 113.572 17.0835Z" fill="white"/>
<path d="M117.635 17.0835C118.265 17.0835 118.914 17.0835 119.543 17.0835C119.543 18.0895 119.543 19.0956 119.543 20.121C119.658 20.1016 119.791 20.1403 119.887 20.0436C121.127 19.0569 122.348 18.0702 123.588 17.0835C124.522 17.0835 125.438 17.0835 126.373 17.0835C124.923 18.3797 123.454 19.6567 121.985 20.9529C123.702 22.3265 125.438 23.6808 127.136 25.0545C126.201 25.0545 125.286 25.0545 124.351 25.0545C124.103 25.0545 123.874 24.9771 123.683 24.8223C122.386 23.8356 121.088 22.8296 119.81 21.8429C119.715 21.8429 119.619 21.8429 119.524 21.8429C119.524 22.907 119.524 23.9904 119.524 25.0545C118.894 25.0351 118.246 25.0545 117.616 25.0545C117.635 22.3846 117.635 19.734 117.635 17.0835Z" fill="white"/>
<path d="M127.327 17.0835C129.865 17.0835 132.421 17.0835 134.958 17.0835C134.939 17.5672 134.749 18.0315 134.405 18.3604C134.062 18.67 133.604 18.8247 133.146 18.8054C131.849 18.8054 130.551 18.8054 129.235 18.8054C129.235 19.2697 129.235 19.7147 129.235 20.179C130.838 20.179 132.459 20.179 134.062 20.179C134.043 20.8755 133.642 21.572 132.974 21.8042C132.574 21.9783 132.135 21.9203 131.715 21.9203C130.895 21.9203 130.055 21.9203 129.235 21.9203C129.216 22.3846 129.216 22.8489 129.235 23.2939C131.143 23.2939 133.051 23.2939 134.958 23.2939C134.978 24.0097 134.501 24.7256 133.814 24.9384C133.451 25.0545 133.07 25.0158 132.707 25.0158C130.895 25.0158 129.101 25.0158 127.289 25.0158C127.346 22.3846 127.327 19.734 127.327 17.0835Z" fill="white"/>
<path d="M86.3093 28.0532C86.5001 27.8211 86.8435 27.8211 87.1297 27.8017C87.4922 27.8017 87.8737 27.7824 88.2171 27.9178C88.4842 28.0532 88.4842 28.4015 88.5033 28.6724C88.3316 28.6724 88.1408 28.6724 87.9691 28.6724C87.931 28.5176 87.931 28.3048 87.7402 28.2854C87.454 28.2467 87.1488 28.2274 86.8626 28.3048C86.6336 28.3821 86.6527 28.6724 86.6337 28.8852C86.6527 29.2334 86.5955 29.601 86.6909 29.9493C86.7481 30.1427 86.9771 30.1621 87.1488 30.1814C87.3777 30.1814 87.6448 30.2201 87.8547 30.104C88.0073 29.9686 87.9691 29.7171 87.9882 29.5236C87.7593 29.5236 87.5112 29.5236 87.2823 29.5236C87.2823 29.3882 87.2823 29.2528 87.2823 29.1173C87.6829 29.1173 88.1027 29.1173 88.5033 29.1173C88.4842 29.5623 88.5987 30.0653 88.3125 30.4329C87.9882 30.6651 87.5685 30.6264 87.206 30.6458C86.8626 30.6264 86.4238 30.6264 86.233 30.2975C86.0422 29.9106 86.0804 29.4462 86.0995 29.0206C86.1185 28.6917 86.0804 28.3241 86.3093 28.0532Z" fill="white"/>
<path d="M89.7051 27.8213C89.8768 27.8213 90.0676 27.8213 90.2393 27.8213C90.2393 28.5952 90.2393 29.3691 90.2393 30.1429C90.6781 30.1623 91.1169 30.1429 91.5366 30.1429C91.5366 30.2977 91.5366 30.4718 91.5366 30.6266C90.9261 30.6266 90.3156 30.6266 89.7051 30.6266C89.7051 29.698 89.7051 28.7499 89.7051 27.8213Z" fill="white"/>
<path d="M93.0628 27.8598C93.5588 27.763 94.074 27.7437 94.5509 27.8985C94.9134 28.0339 94.9325 28.4789 94.9706 28.8271C94.9706 29.3302 95.0279 29.8719 94.818 30.3362C94.6081 30.6264 94.2075 30.6264 93.8832 30.6458C93.5016 30.6458 93.0437 30.6844 92.7385 30.4136C92.5286 30.1427 92.5286 29.7751 92.5096 29.4656C92.5096 29.0399 92.4905 28.6143 92.6431 28.208C92.6813 28.0146 92.872 27.8985 93.0628 27.8598ZM93.349 28.2854C93.2536 28.3048 93.1201 28.3435 93.101 28.4595C93.0247 28.8658 93.0437 29.2721 93.0437 29.6784C93.0628 29.8525 93.0628 30.1234 93.2918 30.1427C93.6161 30.1814 94.0167 30.2588 94.322 30.0653C94.4746 29.6784 94.4174 29.2334 94.4174 28.8078C94.3983 28.6337 94.4364 28.3628 94.2266 28.3048C93.9404 28.2274 93.6352 28.2467 93.349 28.2854Z" fill="white"/>
<path d="M96.1533 27.8213C96.6684 27.8213 97.1835 27.8213 97.6986 27.8213C97.9276 27.8406 98.2138 27.8987 98.2901 28.1502C98.4045 28.4984 98.3855 29.0402 97.9657 29.1756C98.4809 29.2917 98.4999 29.9688 98.3091 30.3557C98.1756 30.5879 97.8704 30.6266 97.6223 30.6266C97.1263 30.6266 96.6303 30.6266 96.1533 30.6266C96.1533 29.698 96.1533 28.7499 96.1533 27.8213ZM96.6875 28.2663C96.6875 28.4984 96.6875 28.7499 96.6875 28.9821C96.9737 28.9821 97.2598 29.0015 97.546 28.9628C97.9085 28.9628 97.8894 28.2856 97.546 28.2663C97.2598 28.2469 96.9737 28.2663 96.6875 28.2663ZM96.6875 30.1816C97.0118 30.1816 97.3171 30.201 97.6414 30.1623C97.9467 30.1236 97.9085 29.6979 97.8131 29.4851C97.4697 29.311 97.0691 29.4464 96.6875 29.3884C96.6875 29.6593 96.6875 29.9108 96.6875 30.1816Z" fill="white"/>
<path d="M100.294 27.8211C100.561 27.8018 100.828 27.8211 101.095 27.8211C101.4 28.7498 101.725 29.6978 102.03 30.6264C101.839 30.6264 101.667 30.6264 101.477 30.6264C101.419 30.4523 101.362 30.2588 101.305 30.0847C100.904 30.0847 100.504 30.0847 100.122 30.0847C100.065 30.2588 100.008 30.4523 99.9503 30.6264C99.7595 30.6264 99.5687 30.6264 99.3779 30.6264C99.6832 29.6978 100.008 28.7691 100.294 27.8211ZM100.236 29.6978C100.542 29.6978 100.866 29.6978 101.171 29.6978C101.019 29.2334 100.866 28.7498 100.713 28.2854C100.523 28.7304 100.408 29.2141 100.236 29.6978Z" fill="white"/>
<path d="M103.099 27.8213C103.27 27.8213 103.461 27.8213 103.633 27.8213C103.633 28.5952 103.633 29.3691 103.633 30.1429C104.072 30.1429 104.491 30.1429 104.93 30.1429C104.93 30.2977 104.93 30.4718 104.93 30.6266C104.32 30.6266 103.709 30.6266 103.099 30.6266C103.099 29.698 103.099 28.7499 103.099 27.8213Z" fill="white"/>
<path d="M108.382 27.8403C108.859 27.763 109.375 27.7243 109.832 27.8984C110.157 28.0145 110.214 28.4208 110.233 28.7303C110.252 29.2333 110.29 29.7557 110.119 30.2394C110.023 30.5296 109.661 30.5876 109.394 30.6263C108.974 30.6457 108.535 30.6844 108.134 30.5102C107.848 30.3748 107.791 30.0072 107.772 29.7363C107.734 29.2333 107.734 28.711 107.867 28.2079C107.944 27.9951 108.173 27.879 108.382 27.8403ZM108.592 28.2853C108.44 28.3047 108.344 28.4401 108.344 28.5949C108.306 29.0399 108.287 29.5235 108.363 29.9685C108.421 30.2007 108.726 30.1813 108.917 30.2007C109.146 30.1813 109.451 30.2394 109.623 30.0459C109.756 29.659 109.699 29.2333 109.699 28.827C109.68 28.6529 109.699 28.3627 109.489 28.324C109.184 28.2273 108.878 28.2466 108.592 28.2853Z" fill="white"/>
<path d="M111.417 27.8213C112.027 27.8213 112.638 27.8213 113.248 27.8213C113.248 27.9761 113.248 28.1308 113.248 28.2663C112.809 28.2663 112.37 28.2663 111.932 28.2663C111.932 28.5178 111.932 28.7693 111.932 29.0208C112.351 29.0208 112.771 29.0208 113.172 29.0208C113.172 29.1756 113.172 29.3304 113.172 29.4851C112.752 29.4851 112.332 29.4851 111.932 29.4851C111.932 29.8721 111.932 30.259 111.932 30.6266C111.76 30.6266 111.588 30.6266 111.397 30.6266C111.417 29.698 111.436 28.7499 111.417 27.8213Z" fill="white"/>
<path d="M114.411 27.8213C115.022 27.8213 115.632 27.8213 116.262 27.8213C116.262 27.9761 116.262 28.1308 116.262 28.2663C115.823 28.2663 115.384 28.2663 114.945 28.2663C114.945 28.5178 114.945 28.7693 114.945 29.0208C115.365 29.0208 115.766 29.0208 116.185 29.0208C116.185 29.1756 116.185 29.3304 116.185 29.4851C115.766 29.4851 115.365 29.4851 114.945 29.4851C114.945 29.8721 114.945 30.259 114.945 30.646C114.774 30.646 114.583 30.646 114.411 30.646C114.411 29.698 114.411 28.7499 114.411 27.8213Z" fill="white"/>
<path d="M117.35 27.8213C117.979 27.8213 118.609 27.8213 119.238 27.8213C119.238 27.9761 119.238 28.1308 119.238 28.2856C118.78 28.2856 118.323 28.2856 117.865 28.2856C117.865 28.5178 117.865 28.7693 117.865 29.0015C118.304 29.0015 118.723 29.0015 119.162 29.0015C119.162 29.1369 119.162 29.2723 119.162 29.4077C118.723 29.4077 118.284 29.4077 117.865 29.4077C117.865 29.6593 117.865 29.9301 117.865 30.1816C118.323 30.201 118.78 30.1816 119.257 30.1816C119.257 30.3364 119.257 30.4912 119.257 30.6266C118.628 30.6266 117.979 30.6266 117.35 30.6266C117.35 29.698 117.35 28.7499 117.35 27.8213Z" fill="white"/>
<path d="M120.479 27.8213C120.784 27.8213 121.07 27.8213 121.375 27.8213C121.776 28.5758 122.138 29.3497 122.52 30.1236C122.52 29.3497 122.52 28.5952 122.52 27.8213C122.692 27.8213 122.882 27.8213 123.054 27.8213C123.054 28.7499 123.054 29.698 123.054 30.6266C122.749 30.6266 122.463 30.6266 122.157 30.6266C121.757 29.8527 121.337 29.0788 120.994 28.2663C121.013 29.0595 120.994 29.8334 121.013 30.6266C120.841 30.6266 120.65 30.6266 120.479 30.6266C120.479 29.698 120.479 28.7499 120.479 27.8213Z" fill="white"/>
<path d="M124.351 28.1306C124.485 27.8597 124.828 27.821 125.076 27.8017C125.439 27.8017 125.82 27.763 126.164 27.9177C126.412 28.0532 126.412 28.3821 126.431 28.6336C126.259 28.6529 126.087 28.6529 125.897 28.6336C125.859 28.4982 125.878 28.266 125.687 28.2466C125.439 28.208 125.172 28.208 124.943 28.266C124.752 28.3434 124.771 28.5949 124.79 28.7497C124.809 28.9625 125.057 28.9238 125.191 28.9625C125.553 29.0012 125.973 28.9625 126.297 29.1753C126.526 29.4655 126.469 29.8718 126.412 30.22C126.355 30.5102 126.068 30.607 125.82 30.6263C125.401 30.665 124.943 30.6844 124.542 30.5489C124.237 30.4135 124.237 30.0266 124.218 29.7364C124.389 29.7364 124.561 29.7364 124.733 29.7364C124.752 29.8911 124.714 30.1233 124.905 30.1813C125.21 30.2394 125.515 30.2587 125.82 30.162C125.992 30.0266 125.973 29.7364 125.897 29.5429C125.649 29.3881 125.324 29.4655 125.038 29.4075C124.771 29.3688 124.409 29.3688 124.294 29.0592C124.237 28.769 124.237 28.4208 124.351 28.1306Z" fill="white"/>
<path d="M127.689 27.8213C127.861 27.8213 128.052 27.8213 128.224 27.8213C128.224 28.7499 128.224 29.698 128.224 30.6266C128.052 30.6266 127.861 30.6266 127.689 30.6266C127.689 29.698 127.689 28.7499 127.689 27.8213Z" fill="white"/>
<path d="M129.273 27.8213C129.464 27.8213 129.636 27.8213 129.827 27.8213C130.075 28.6145 130.361 29.3884 130.571 30.1816C130.781 29.3884 131.067 28.5952 131.315 27.8213C131.506 27.8213 131.696 27.8213 131.887 27.8213C131.582 28.7499 131.296 29.698 130.99 30.6266C130.723 30.6266 130.437 30.6266 130.17 30.6266C129.865 29.698 129.579 28.7499 129.273 27.8213Z" fill="white"/>
<path d="M132.879 27.8213C133.508 27.8213 134.138 27.8213 134.787 27.8213C134.787 27.9761 134.787 28.1308 134.787 28.2663C134.329 28.2663 133.871 28.2663 133.413 28.2663C133.413 28.4984 133.413 28.7499 133.413 28.9821C133.852 28.9821 134.272 28.9821 134.71 28.9821C134.71 29.1175 134.71 29.253 134.71 29.3884C134.272 29.3884 133.833 29.3884 133.413 29.3884C133.413 29.6399 133.413 29.9108 133.413 30.1623C133.871 30.1816 134.329 30.1623 134.806 30.1623C134.806 30.3171 134.806 30.4718 134.806 30.6073C134.176 30.6073 133.528 30.6073 132.898 30.6073C132.879 29.698 132.879 28.7499 132.879 27.8213Z" fill="white"/>
</svg>
