<svg width="24" height="24" viewBox="0 0 24 24" fill="none" xmlns="http://www.w3.org/2000/svg">
<mask id="mask0_714_2137" style="mask-type:alpha" maskUnits="userSpaceOnUse" x="0" y="0" width="24" height="24">
<rect width="24" height="24" fill="#D9D9D9"/>
</mask>
<g mask="url(#mask0_714_2137)">
<path fill-rule="evenodd" clip-rule="evenodd" d="M6 7.32289C6 6.59228 6.59228 6 7.32289 6H14.8063C15.5369 6 16.1292 6.59228 16.1292 7.32289C16.1292 8.0535 15.5369 8.64577 14.8063 8.64577H10.5166L17.6125 15.7417C18.1292 16.2583 18.1292 17.0959 17.6125 17.6125C17.0959 18.1292 16.2583 18.1292 15.7417 17.6125L8.64577 10.5166V14.8063C8.64577 15.5369 8.0535 16.1292 7.32289 16.1292C6.59228 16.1292 6 15.5369 6 14.8063V7.32289Z" fill="#FCFCFC"/>
</g>
</svg>
