<svg width="24" height="24" viewBox="0 0 24 24" fill="none" xmlns="http://www.w3.org/2000/svg">
<mask id="mask0_667_2265" style="mask-type:alpha" maskUnits="userSpaceOnUse" x="0" y="0" width="24" height="24">
<rect width="24" height="24" fill="#D9D9D9"/>
</mask>
<g mask="url(#mask0_667_2265)">
<path fill-rule="evenodd" clip-rule="evenodd" d="M13.2733 2.03814C13.6797 2.15361 13.9697 2.51201 13.9978 2.93354L14.4356 9.50006H18.5C18.8746 9.50006 19.2178 9.70941 19.3892 10.0425C19.5606 10.3756 19.5315 10.7765 19.3137 11.0813L11.8137 21.5813C11.5682 21.9251 11.1331 22.0775 10.7267 21.962C10.3203 21.8465 10.0303 21.4881 10.0022 21.0666L9.56445 14.5001H5.5C5.12542 14.5001 4.78224 14.2907 4.61084 13.9576C4.43943 13.6246 4.46855 13.2236 4.68627 12.9188L12.1863 2.41882C12.4318 2.07504 12.8669 1.92267 13.2733 2.03814ZM7.44319 12.5001H10.5C11.0265 12.5001 11.4628 12.9082 11.4978 13.4335L11.8118 18.1431L16.5568 11.5001H13.5C12.9735 11.5001 12.5372 11.0919 12.5022 10.5666L12.1882 5.85699L7.44319 12.5001Z" fill="#FCFCFC"/>
</g>
</svg>
