<svg width="24" height="24" viewBox="0 0 24 24" fill="none" xmlns="http://www.w3.org/2000/svg">
<mask id="mask0_667_2555" style="mask-type:alpha" maskUnits="userSpaceOnUse" x="0" y="0" width="24" height="24">
<rect width="24" height="24" fill="#D9D9D9"/>
</mask>
<g mask="url(#mask0_667_2555)">
<path fill-rule="evenodd" clip-rule="evenodd" d="M4.25 8C4.25 5.23857 6.48858 3 9.25 3H17C19.7614 3 22 5.23858 22 8V16C22 18.7614 19.7614 21 17 21H3C2.63251 21 2.29462 20.7984 2.12004 20.475C1.94546 20.1517 1.96232 19.7586 2.16395 19.4513L3.75815 17.0221C4.07904 16.5331 4.25 15.961 4.25 15.3761V8ZM9.25 5C7.59315 5 6.25 6.34314 6.25 8V15.3761C6.25 16.3509 5.96506 17.3044 5.43024 18.1194L4.85236 19H17C18.6569 19 20 17.6569 20 16V8C20 6.34315 18.6569 5 17 5H9.25Z" fill="#FCFCFC"/>
<path d="M13.8 16.7221C13.6 16.9221 13.3583 17.0221 13.075 17.0221C12.7917 17.0221 12.55 16.9221 12.35 16.7221C12.15 16.5221 12.05 16.2804 12.05 15.9971C12.05 15.7138 12.15 15.4721 12.35 15.2721C12.55 15.0721 12.7917 14.9721 13.075 14.9721C13.3583 14.9721 13.6 15.0721 13.8 15.2721C14 15.4721 14.1 15.7138 14.1 15.9971C14.1 16.2804 14 16.5221 13.8 16.7221Z" fill="#FCFCFC"/>
<path d="M13.85 13.8471H12.35C12.35 13.0971 12.4125 12.5763 12.5375 12.2846C12.6625 11.9929 13.0167 11.5971 13.6 11.0971C13.8333 10.8638 14.0333 10.6346 14.2 10.4096C14.3667 10.1846 14.45 9.93043 14.45 9.6471C14.45 9.3471 14.3375 9.0721 14.1125 8.8221C13.8875 8.5721 13.55 8.4471 13.1 8.4471C12.65 8.4471 12.3083 8.5846 12.075 8.8596C11.8417 9.1346 11.6833 9.41376 11.6 9.6971L10.2 9.1471C10.4 8.56376 10.75 8.06793 11.25 7.6596C11.75 7.25127 12.3667 7.0471 13.1 7.0471C13.8833 7.0471 14.5625 7.2596 15.1375 7.6846C15.7125 8.1096 16 8.7471 16 9.5971C16 9.9971 15.9 10.3721 15.7 10.7221C15.5 11.0721 15.25 11.3971 14.95 11.6971C14.4167 12.2304 14.1 12.5971 14 12.7971C13.9 12.9971 13.85 13.3471 13.85 13.8471Z" fill="#FCFCFC"/>
</g>
</svg>
