<svg width="24" height="24" viewBox="0 0 24 24" fill="none" xmlns="http://www.w3.org/2000/svg">
<path fill-rule="evenodd" clip-rule="evenodd" d="M4 7C4 4.23858 6.23858 2 9 2H13C13.2652 2 13.5196 2.10536 13.7071 2.29289L19.7071 8.29289C19.8946 8.48043 20 8.73478 20 9V17C20 19.7614 17.7614 22 15 22H13C12.4477 22 12 21.5523 12 21C12 20.4477 12.4477 20 13 20H15C16.6569 20 18 18.6569 18 17V10H15C13.3431 10 12 8.65685 12 7V4H9C7.34315 4 6 5.34315 6 7V12C6 12.5523 5.55228 13 5 13C4.44772 13 4 12.5523 4 12V7ZM14 5.41421L16.5858 8H15C14.4477 8 14 7.55228 14 7V5.41421ZM10.1842 11.6189C11.0094 10.7937 12.3473 10.7937 13.1725 11.6189L14.3811 12.8275C15.2063 13.6527 15.2063 14.9906 14.3811 15.8158L8.48977 21.7071C8.30223 21.8946 8.04788 22 7.78266 22H5C4.44772 22 4 21.5523 4 21V18.2173C4 17.9521 4.10536 17.6978 4.29289 17.5102L10.1842 11.6189ZM11.7583 13.0331C11.7142 12.989 11.6426 12.989 11.5984 13.0331L10.423 14.2085L11.7914 15.577L12.9669 14.4016C13.011 14.3574 13.011 14.2858 12.9669 14.2417L11.7583 13.0331ZM10.3772 16.9912L9.00879 15.6228L6 18.6316V20H7.36845L10.3772 16.9912Z" fill="#FCFCFC"/>
</svg>
