<svg width="24" height="24" viewBox="0 0 24 24" fill="none" xmlns="http://www.w3.org/2000/svg">
<path fill-rule="evenodd" clip-rule="evenodd" d="M4 5.00018C4 3.34333 5.34315 2.00018 7 2.00018H17C18.6569 2.00018 20 3.34333 20 5.00018V8.00018C20 8.55247 19.5523 9.00018 19 9.00018C18.4477 9.00018 18 8.55247 18 8.00018V5.00018C18 4.4479 17.5523 4.00018 17 4.00018H7C6.44772 4.00018 6 4.4479 6 5.00018V19.0002C6 19.5525 6.44772 20.0002 7 20.0002H17C17.5523 20.0002 18 19.5525 18 19.0002V16.0002C18 15.4479 18.4477 15.0002 19 15.0002C19.5523 15.0002 20 15.4479 20 16.0002V19.0002C20 20.657 18.6569 22.0002 17 22.0002H7C5.34315 22.0002 4 20.657 4 19.0002V5.00018ZM13.7071 7.29308C14.0976 7.6836 14.0976 8.31677 13.7071 8.70729L11.4142 11.0002L20 11.0002C20.5523 11.0002 21 11.4479 21 12.0002C21 12.5525 20.5523 13.0002 20 13.0002L11.4142 13.0002L13.7071 15.2931C14.0976 15.6836 14.0976 16.3168 13.7071 16.7073C13.3166 17.0978 12.6834 17.0978 12.2929 16.7073L8.29289 12.7073C7.90237 12.3168 7.90237 11.6836 8.29289 11.2931L12.2929 7.29308C12.6834 6.90255 13.3166 6.90255 13.7071 7.29308Z" fill="#FCFCFC"/>
</svg>
