<svg width="44" height="44" viewBox="0 0 44 44" fill="none" xmlns="http://www.w3.org/2000/svg">
<mask id="mask0_1527_1866" style="mask-type:alpha" maskUnits="userSpaceOnUse" x="0" y="0" width="44" height="44">
<rect width="44" height="44" fill="#D9D9D9"/>
</mask>
<g mask="url(#mask0_1527_1866)">
<path d="M21.2266 22.7735V21.2267H22.7734V22.7735H21.2266ZM22.6767 19.6799L22.6767 17.7464L26.2537 17.7464V21.3233L24.3202 21.3233L24.3202 19.6799L22.6767 19.6799ZM17.7463 21.3233V17.7464L21.3233 17.7464L21.3233 19.6799L19.6798 19.6799L19.6798 21.3233L17.7463 21.3233ZM22.6767 26.2537V24.3202H24.3202V22.6768L26.2537 22.6768L26.2537 26.2537H22.6767ZM17.7463 26.2537L17.7463 22.6768L19.6798 22.6768V24.3202H21.3233V26.2537H17.7463Z" fill="#28D377"/>
<path d="M21.8212 30.1005L23.4988 36.3614L11.916 39.465L8.81242 27.8822L15.0734 26.2046L16.4993 31.5264L21.8212 30.1005ZM36.3606 20.5007L39.4642 32.0835L27.8814 35.1871L26.2038 28.9261L31.5256 27.5002L30.0997 22.1784L36.3606 20.5007ZM16.1173 8.81323L17.7949 15.0742L12.4731 16.5002L13.899 21.822L7.63809 23.4996L4.5345 11.9168L16.1173 8.81323ZM32.0827 4.53531L35.1863 16.1181L28.9253 17.7957L27.4993 12.4739L22.1775 13.8999L20.4999 7.6389L32.0827 4.53531Z" fill="#28D377"/>
</g>
</svg>
