<svg width="24" height="24" viewBox="0 0 24 24" fill="none" xmlns="http://www.w3.org/2000/svg">
<mask id="mask0_667_1465" style="mask-type:alpha" maskUnits="userSpaceOnUse" x="0" y="0" width="24" height="24">
<rect width="24" height="24" fill="#D9D9D9"/>
</mask>
<g mask="url(#mask0_667_1465)">
<path fill-rule="evenodd" clip-rule="evenodd" d="M12.0002 3.93896C9.79101 3.93896 8.00015 5.72983 8.00015 7.93896C8.00015 10.1481 9.79102 11.939 12.0002 11.939C14.2093 11.939 16.0002 10.1481 16.0002 7.93896C16.0002 5.72983 14.2093 3.93896 12.0002 3.93896ZM15.6411 12.7083C17.0751 11.6119 18.0002 9.88348 18.0002 7.93896C18.0002 4.62526 15.3139 1.93896 12.0002 1.93896C8.68644 1.93896 6.00015 4.62526 6.00015 7.93896C6.00015 9.88348 6.92517 11.6119 8.35916 12.7083C7.35369 13.1531 6.42866 13.7825 5.63619 14.575C5.02426 15.1869 4.5095 15.878 4.10193 16.6241C3.34981 18.0009 3.65654 19.4047 4.50355 20.3973C5.31895 21.353 6.62518 21.939 8.00015 21.939H16.0002C17.3751 21.939 18.6814 21.353 19.4968 20.3973C20.3438 19.4047 20.6505 18.0009 19.8984 16.6241C19.4908 15.878 18.976 15.1869 18.3641 14.575C17.5717 13.7825 16.6466 13.1531 15.6411 12.7083ZM12.0002 13.939C10.1436 13.939 8.36316 14.6765 7.05041 15.9892C6.5744 16.4652 6.17409 17.0026 5.85711 17.5829C5.55015 18.1448 5.64917 18.6587 6.02496 19.0991C6.43236 19.5766 7.16599 19.939 8.00015 19.939H16.0002C16.8343 19.939 17.568 19.5766 17.9753 19.0991C18.3511 18.6587 18.4502 18.1448 18.1432 17.5829C17.8262 17.0026 17.4259 16.4652 16.9499 15.9892C15.6371 14.6765 13.8567 13.939 12.0002 13.939Z" fill="#FCFCFC"/>
</g>
</svg>
