<svg width="24" height="24" viewBox="0 0 24 24" fill="none" xmlns="http://www.w3.org/2000/svg">
<path fill-rule="evenodd" clip-rule="evenodd" d="M10.8398 4.08354L10.5748 5.18324C10.1727 6.85207 8.45489 7.84385 6.80859 7.35767L5.72458 7.03753C5.24537 7.64256 4.85211 8.31804 4.5628 9.04553L5.38364 9.82575C6.62784 11.0084 6.62784 12.992 5.38364 14.1746L4.5628 14.9548C4.85211 15.6823 5.24537 16.3578 5.72458 16.9628L6.80859 16.6427C8.45489 16.1565 10.1727 17.1483 10.5748 18.8171L10.8398 19.9168C11.2181 19.9717 11.6053 20.0002 11.9998 20.0002C12.3942 20.0002 12.7815 19.9717 13.1597 19.9168L13.4247 18.8171C13.8268 17.1483 15.5446 16.1565 17.1909 16.6427L18.2749 16.9628C18.7542 16.3578 19.1474 15.6823 19.4367 14.9548L18.6159 14.1746C17.3717 12.992 17.3717 11.0084 18.6159 9.82575L19.4367 9.04553C19.1474 8.31804 18.7542 7.64256 18.2749 7.03753L17.1909 7.35767C15.5446 7.84386 13.8268 6.85207 13.4247 5.18324L13.1597 4.08354C12.7815 4.02865 12.3942 4.00018 11.9998 4.00018C11.6053 4.00018 11.2181 4.02865 10.8398 4.08354ZM9.80046 2.24303C10.509 2.08393 11.2452 2.00018 11.9998 2.00018C12.7543 2.00018 13.4905 2.08393 14.1991 2.24303C14.5709 2.32651 14.8629 2.61404 14.9522 2.98449L15.3691 4.71475C15.5031 5.27103 16.0757 5.60162 16.6245 5.43956L18.3293 4.93608C18.6943 4.82828 19.0889 4.93703 19.3472 5.21662C20.3416 6.29328 21.1032 7.59015 21.5501 9.02707C21.6631 9.39052 21.56 9.78662 21.2841 10.0489L19.9938 11.2754C19.5791 11.6696 19.5791 12.3308 19.9938 12.725L21.2841 13.9515C21.56 14.2137 21.6631 14.6099 21.5501 14.9733C21.1032 16.4102 20.3416 17.7071 19.3472 18.7838C19.0889 19.0633 18.6943 19.1721 18.3293 19.0643L16.6245 18.5608C16.0757 18.3987 15.5031 18.7293 15.3691 19.2856L14.9522 21.0159C14.8629 21.3863 14.5709 21.6739 14.1991 21.7573C13.4905 21.9164 12.7543 22.0002 11.9998 22.0002C11.2452 22.0002 10.509 21.9164 9.80046 21.7573C9.42866 21.6739 9.13661 21.3863 9.04736 21.0159L8.63046 19.2856C8.49642 18.7293 7.92381 18.3987 7.37505 18.5608L5.67019 19.0643C5.30518 19.1721 4.91062 19.0633 4.65238 18.7838C3.65789 17.7071 2.89634 16.4102 2.44944 14.9733C2.33641 14.6098 2.4395 14.2137 2.71538 13.9515L4.00574 12.725C4.42047 12.3308 4.42047 11.6696 4.00574 11.2754L2.71538 10.0489C2.4395 9.78662 2.33641 9.39052 2.44944 9.02707C2.89634 7.59015 3.65789 6.29328 4.65237 5.21662C4.91062 4.93704 5.30518 4.82828 5.67019 4.93608L7.37505 5.43956C7.92381 5.60162 8.49642 5.27103 8.63046 4.71475L9.04735 2.98449C9.13661 2.61404 9.42866 2.32651 9.80046 2.24303ZM11.9998 10.0002C10.8952 10.0002 9.99976 10.8956 9.99976 12.0002C9.99976 13.1048 10.8952 14.0002 11.9998 14.0002C13.1043 14.0002 13.9998 13.1048 13.9998 12.0002C13.9998 10.8956 13.1043 10.0002 11.9998 10.0002ZM7.99976 12.0002C7.99976 9.79105 9.79062 8.00018 11.9998 8.00018C14.2089 8.00018 15.9998 9.79105 15.9998 12.0002C15.9998 14.2093 14.2089 16.0002 11.9998 16.0002C9.79062 16.0002 7.99976 14.2093 7.99976 12.0002Z" fill="#FCFCFC"/>
</svg>
