<svg width="25" height="24" viewBox="0 0 25 24" fill="none" xmlns="http://www.w3.org/2000/svg">
<path fill-rule="evenodd" clip-rule="evenodd" d="M15.0882 3.34074C13.3926 2.88642 11.6074 2.88642 9.91181 3.34074C9.37834 3.48368 8.83001 3.1671 8.68707 2.63363C8.54412 2.10017 8.86071 1.55183 9.39417 1.40889C11.4288 0.863703 13.5712 0.863703 15.6058 1.40889C16.1393 1.55183 16.4559 2.10017 16.3129 2.63363C16.17 3.1671 15.6217 3.48368 15.0882 3.34074ZM18.356 3.6348C18.69 3.19496 19.3173 3.10916 19.7572 3.44316C21.0284 4.40847 22.0942 5.61768 22.8923 7C23.1684 7.47829 23.0046 8.08988 22.5263 8.36602C22.048 8.64217 21.4364 8.47829 21.1603 8C20.4952 6.84806 19.607 5.84039 18.5477 5.03597C18.1078 4.70196 18.022 4.07464 18.356 3.6348ZM12.5 6C8.63401 6 5.5 9.13401 5.5 13C5.5 16.866 8.63401 20 12.5 20C16.366 20 19.5 16.866 19.5 13C19.5 9.13401 16.366 6 12.5 6ZM3.5 13C3.5 8.02944 7.52944 4 12.5 4C17.4706 4 21.5 8.02944 21.5 13C21.5 17.9706 17.4706 22 12.5 22C7.52944 22 3.5 17.9706 3.5 13ZM12.5 8C13.0523 8 13.5 8.44772 13.5 9V13C13.5 13.5523 13.0523 14 12.5 14C11.9477 14 11.5 13.5523 11.5 13V9C11.5 8.44772 11.9477 8 12.5 8Z" fill="#FCFCFC"/>
</svg>
