<svg width="24" height="24" viewBox="0 0 24 24" fill="none" xmlns="http://www.w3.org/2000/svg">
<mask id="mask0_667_2318" style="mask-type:alpha" maskUnits="userSpaceOnUse" x="0" y="0" width="24" height="24">
<rect width="24" height="24" fill="#D9D9D9"/>
</mask>
<g mask="url(#mask0_667_2318)">
<path fill-rule="evenodd" clip-rule="evenodd" d="M3 2C3.55228 2 4 2.44772 4 3V19C4 19.5523 4.44772 20 5 20H21C21.5523 20 22 20.4477 22 21C22 21.5523 21.5523 22 21 22H5C3.34315 22 2 20.6569 2 19V3C2 2.44772 2.44772 2 3 2ZM18.5299 5.15195C18.7548 5.29249 18.9147 5.51663 18.9744 5.77505L19.9288 9.90896C20.053 10.4471 19.7175 10.984 19.1793 11.1083C18.6412 11.2325 18.1043 10.897 17.98 10.3589L17.5468 8.48252L15.1654 12.0547C14.9799 12.3329 14.6677 12.5 14.3333 12.5H11.2018L7.83205 17.5547C7.5257 18.0142 6.90483 18.1384 6.4453 17.8321C5.98577 17.5257 5.8616 16.9048 6.16795 16.4453L9.83462 10.9453C10.0201 10.6671 10.3323 10.5 10.6667 10.5H13.7981L15.7708 7.54096L14.0911 7.92877C13.5529 8.05301 13.016 7.71749 12.8917 7.17936C12.7675 6.64123 13.103 6.10427 13.6412 5.98003L17.775 5.02563C18.0335 4.96597 18.305 5.01141 18.5299 5.15195Z" fill="#FCFCFC"/>
</g>
</svg>
