<svg width="108" height="26" viewBox="0 0 108 26" fill="none" xmlns="http://www.w3.org/2000/svg">
<path d="M12.4515 13.5757V12.4243H13.6054V13.5757H12.4515ZM13.5333 11.273V9.83377H16.2016V12.4963H14.7593V11.273H13.5333ZM9.85526 12.4963V9.83377H12.5236V11.273H11.2976V12.4963H9.85526ZM13.5333 16.1663V14.7271H14.7593V13.5037H16.2016V16.1663H13.5333ZM9.85526 16.1663V13.5037H11.2976V14.7271H12.5236V16.1663H9.85526Z" fill="#28D377"/>
<path d="M12.8956 19.0295L14.147 23.6898L5.50648 26L3.19126 17.3783L7.86182 16.1296L8.92557 20.0909L12.8956 19.0295ZM23.7417 11.8839L26.057 20.5056L17.4164 22.8157L16.1649 18.1554L20.1349 17.0939L19.0712 13.1326L23.7417 11.8839ZM8.64054 3.18428L9.89202 7.84463L5.92204 8.90606L6.98579 12.8674L2.31523 14.1161L0 5.49445L8.64054 3.18428ZM20.5505 0L22.8657 8.62165L18.1951 9.87039L17.1314 5.90909L13.1614 6.97052L11.9099 2.31016L20.5505 0Z" fill="#28D377"/>
<path d="M40.3235 13.5074V11.2383H44.0757V17.9132C42.2691 18.2032 40.8036 18.3481 39.6792 18.3481C37.6705 18.3481 36.2871 17.8124 35.5291 16.7408C34.7837 15.6693 34.411 13.9675 34.411 11.6354C34.411 9.30327 34.8026 7.62036 35.5859 6.58667C36.3692 5.55297 37.7021 5.03612 39.5845 5.03612C40.7594 5.03612 42.0291 5.16848 43.3935 5.43321L44.0757 5.56558L43.9999 7.58885C42.4839 7.42497 41.2395 7.34303 40.2667 7.34303C39.3065 7.34303 38.6306 7.45648 38.239 7.68339C37.8473 7.9103 37.5568 8.33261 37.3673 8.9503C37.1904 9.55539 37.102 10.6017 37.102 12.0892C37.102 13.5641 37.2851 14.5978 37.6515 15.1903C38.0179 15.7828 38.7759 16.079 39.9256 16.079L41.4985 16.0034V13.5074H40.3235Z" fill="#FCFCFC"/>
<path d="M46.4887 14.2448V11.9379H52.098V14.2448H46.4887Z" fill="#FCFCFC"/>
<path d="M58.4773 7.30521C57.1002 7.30521 56.4116 7.75903 56.4116 8.66667C56.4116 9.07006 56.5822 9.37891 56.9233 9.59321C57.2644 9.80751 58.0603 10.1164 59.3111 10.5198C60.5744 10.9232 61.4588 11.3833 61.9642 11.9001C62.4695 12.4044 62.7222 13.1859 62.7222 14.2448C62.7222 15.5937 62.3116 16.6148 61.4904 17.3081C60.6692 18.0015 59.5953 18.3481 58.2688 18.3481C57.2834 18.3481 56.0769 18.1968 54.6493 17.8943L53.967 17.7619L54.2323 15.7387C55.9253 15.9656 57.2202 16.079 58.1172 16.079C59.4564 16.079 60.1259 15.5244 60.1259 14.415C60.1259 14.0116 59.968 13.6965 59.6522 13.4696C59.349 13.2427 58.7362 12.9968 57.814 12.7321C56.3485 12.3161 55.3125 11.8245 54.7061 11.2572C54.1123 10.6773 53.8154 9.87685 53.8154 8.85576C53.8154 7.56994 54.2071 6.61188 54.9904 5.98158C55.7736 5.35127 56.8475 5.03612 58.2119 5.03612C59.1468 5.03612 60.3344 5.16218 61.7746 5.4143L62.4569 5.54667L62.2484 7.60776C60.4671 7.40606 59.21 7.30521 58.4773 7.30521Z" fill="#FCFCFC"/>
<path d="M73.2766 17.9132C71.9374 18.2032 70.7309 18.3481 69.657 18.3481C68.5832 18.3481 67.7241 18.2158 67.0798 17.951C66.4354 17.6863 65.9301 17.264 65.5637 16.6841C65.1973 16.1042 64.9447 15.4235 64.8057 14.6419C64.6667 13.8604 64.5972 12.8771 64.5972 11.6921C64.5972 9.20873 64.9447 7.4817 65.6395 6.51103C66.347 5.52776 67.642 5.03612 69.5244 5.03612C70.6109 5.03612 71.8679 5.2063 73.2955 5.54667L73.2197 7.62667C71.969 7.43758 70.9267 7.34303 70.0929 7.34303C69.2717 7.34303 68.6842 7.45648 68.3305 7.68339C67.9767 7.8977 67.7114 8.3137 67.5346 8.93139C67.3703 9.54909 67.2882 10.6017 67.2882 12.0892C67.2882 13.5767 67.4588 14.6104 67.7999 15.1903C68.1536 15.7576 68.8485 16.0412 69.8844 16.0412C70.933 16.0412 72.0448 15.953 73.2197 15.7765L73.2766 17.9132Z" fill="#FCFCFC"/>
<path d="M78.2437 15.0958C78.6227 15.7513 79.3239 16.079 80.3472 16.079C81.3705 16.079 82.0654 15.7513 82.4317 15.0958C82.8108 14.4276 83.0003 13.3183 83.0003 11.7678C83.0003 10.2046 82.8108 9.07006 82.4317 8.36412C82.0527 7.65818 81.3579 7.30521 80.3472 7.30521C79.3365 7.30521 78.6416 7.65818 78.2626 8.36412C77.8836 9.07006 77.6941 10.2046 77.6941 11.7678C77.6941 13.3183 77.8773 14.4276 78.2437 15.0958ZM84.4784 16.7598C83.6825 17.8187 82.3054 18.3481 80.3472 18.3481C78.389 18.3481 77.0056 17.8187 76.197 16.7598C75.4011 15.6882 75.0031 14.0179 75.0031 11.7488C75.0031 9.47976 75.4011 7.79685 76.197 6.70012C77.0056 5.59079 78.389 5.03612 80.3472 5.03612C82.3054 5.03612 83.6825 5.59079 84.4784 6.70012C85.287 7.79685 85.6912 9.47976 85.6912 11.7488C85.6912 14.0179 85.287 15.6882 84.4784 16.7598Z" fill="#FCFCFC"/>
<path d="M92.9558 14.3772H90.8333V18.1212H88.2182V5.26303H92.9558C96.0132 5.26303 97.5418 6.75055 97.5418 9.72558C97.5418 11.2257 97.1502 12.3792 96.3669 13.1859C95.5962 13.9801 94.4592 14.3772 92.9558 14.3772ZM90.8333 12.1459H92.9369C94.2381 12.1459 94.8888 11.3392 94.8888 9.72558C94.8888 8.93139 94.7308 8.36412 94.415 8.02376C94.0992 7.67079 93.6064 7.4943 92.9369 7.4943H90.8333V12.1459Z" fill="#FCFCFC"/>
<path d="M99.6618 18.1212V5.26303H108V7.53212H102.277V10.5387H106.863V12.7699H102.277V15.8521H108V18.1212H99.6618Z" fill="#FCFCFC"/>
</svg>
