<svg width="32" height="32" viewBox="0 0 32 32" fill="none" xmlns="http://www.w3.org/2000/svg">
<path fill-rule="evenodd" clip-rule="evenodd" d="M2.79352 0.231855C1.58852 1.46311 0.587266 0.435605 0.587266 0.435605L0.418516 1.73748L0.294766 1.71998L0.232891 0.966856L0.374766 0.92248L0.419141 0.799355L0.0560156 0.75498L-0.00585938 2.39373C0.295391 2.86373 0.357266 2.37623 0.357266 2.37623L0.543516 2.47373C-0.147734 9.73811 0.844766 12.8569 0.844766 12.8569C0.136016 14.655 1.25227 15.16 1.25227 15.16L1.20789 16.3737L0.658516 16.0725L0.641016 16.3737L0.924766 16.5331L0.844766 16.675C0.561016 16.4269 0.463516 16.4887 0.463516 16.4887C0.303516 19.3594 0.587266 20.635 0.587266 20.635L1.21602 20.7325L1.07414 24.17L0.586641 24.1875C0.382891 24.5062 0.365391 25.7644 0.365391 25.7644C0.817266 29.37 0.206016 30.46 0.206016 30.46L1.13477 30.6L1.11727 31.0431L1.32102 31.1406C1.35664 30.8131 1.68414 30.7331 1.68414 30.7331C1.90539 30.8125 1.70164 31.1581 1.70164 31.1581L1.90539 31.2025L1.98539 30.7594H2.10914L2.09164 31.025L2.29539 31.0425C3.18164 30.6437 3.24352 31.0869 3.24352 31.0869L3.32352 30.5819C3.44727 30.9094 4.39539 30.8475 4.39539 30.8475C5.22789 30.75 5.32539 31.1131 5.32539 31.1131L5.28102 30.6081H5.46727C5.54727 30.9894 5.81289 30.8919 5.81289 30.8919C5.85727 30.3694 6.07852 30.4669 6.07852 30.4669C6.24664 30.6531 6.20227 31.0781 6.20227 31.0781L6.42352 31.1756C6.50352 30.7862 6.91102 30.8481 6.91102 30.8481L7.25664 30.6087V30.8481H7.61977L7.71727 30.5825C7.81477 30.6444 7.87664 31.0519 7.87664 31.0519H8.06289L8.20477 30.9544L8.30227 31.0962C8.32039 30.8925 8.58602 30.7506 8.58602 30.7506L8.82539 31.1137L9.01164 31.0519L8.99414 30.7862C9.18039 30.6887 9.60539 31.1319 9.60539 31.1319L9.70289 31.0081L9.49914 30.7687L9.78289 30.4675C9.80914 30.7069 10.1904 31.1319 10.1904 31.1319C10.0485 30.5031 10.4116 30.4056 10.4116 30.4056C10.6335 31.1144 11.1029 31.1319 11.1029 31.1319C11.1473 30.8481 11.2448 30.8306 11.2448 30.8306C11.8123 31.4331 12.946 30.9106 12.946 30.9106L13.7166 32.1687C13.8935 31.9381 14.381 31.9825 14.381 31.9825L14.2835 31.6369C15.6654 31.1937 16.1085 31.9825 16.1085 31.9825L16.3741 31.6012L16.5335 31.5837L16.551 31.885C17.021 32.2044 18.0485 31.8231 18.0485 31.8231L17.8091 31.6369C17.7116 31.3887 20.8035 31.4331 20.8035 31.4331C20.8216 31.575 20.6798 31.6725 20.6798 31.6725L19.891 31.7344C20.6623 32.2394 21.291 31.6106 21.291 31.6106L21.371 31.265L21.1054 31.3269C21.221 31.0256 21.5485 31.1231 21.5485 31.1231L21.4066 31.6106C21.6285 31.6906 21.7879 31.5487 21.7879 31.5487L21.8054 31.2031H21.9473L21.8673 31.4869C22.9391 31.1587 23.7098 31.3006 23.7098 31.3006C23.8073 30.8219 24.2948 30.9194 24.2948 30.9194C25.0035 31.4687 25.8716 31.1056 25.8716 31.1056C27.6704 32.0006 28.6448 31.0881 28.6448 31.0881C29.0435 31.6287 29.026 31.0437 29.026 31.0437L29.5485 31.0262L29.6285 30.8669L28.4148 30.7694C29.4073 29.7769 31.9941 31.2744 31.9941 31.2744L31.8704 18.18C30.4973 18.3219 31.0198 17.8525 31.0198 17.8525C31.2854 18.0737 31.4273 17.9144 31.4273 17.9144C31.3298 16.9837 31.6135 16.4612 31.6135 16.4612C31.2498 16.195 31.7373 15.0612 31.7373 15.0612C31.1085 15.1056 31.4098 13.8475 31.4098 13.8475C30.8866 13.7412 30.9666 13.3781 30.9666 13.3781C31.3123 13.0325 30.8248 13.2362 30.8248 13.2362C30.3198 12.3506 31.2498 12.0669 31.2498 12.0669L30.8866 11.1369L31.8166 11.1194C32.2416 6.06061 31.6304 3.16373 31.6304 3.16373C32.1173 2.89748 31.7541 1.25873 31.7541 1.25873C30.7616 1.05498 30.8591 0.62998 30.8591 0.62998L29.991 0.61248L29.6898 0.42623C29.6723 1.11748 28.0954 0.364355 28.0954 0.364355C27.4135 1.13498 27.2273 -0.123145 27.2273 -0.123145C27.3691 -0.10502 26.7485 -0.29127 26.9879 0.11623C27.2273 0.52373 26.926 0.54123 26.926 0.54123C21.2385 -0.0612696 20.751 0.381855 20.751 0.381855C21.1813 0.66226 20.9692 0.999801 20.8338 1.2152C20.7851 1.29266 20.7464 1.35433 20.751 1.39186C19.6791 1.37436 19.4135 1.59561 19.4135 1.59561C19.396 0.691855 18.2441 0.0806054 17.5354 0.14248C16.8266 0.204355 16.4016 -0.15877 16.4016 -0.15877C15.7366 0.470605 14.1954 -0.17627 14.1954 -0.17627C13.9916 0.32873 13.7079 0.10748 13.7079 0.10748L13.0791 0.0456055L12.9816 0.48873L12.7779 0.0637305C12.601 0.85248 12.4148 0.75498 12.4148 0.75498L11.9105 0.770548C11.9047 0.715672 11.8479 0.77248 11.8479 0.77248L11.9105 0.770548C11.9138 0.802395 11.9 0.871853 11.8479 1.01186C11.706 1.39311 11.2985 1.01186 11.2985 1.01186C11.2985 1.01186 9.92539 1.10061 9.23414 1.05623C8.54352 1.02061 8.16227 0.47123 8.16227 0.47123L7.89664 0.834355L7.24977 0.754355L7.20539 0.550605L6.85977 0.754355L5.40664 0.70998L5.26477 0.851856L5.04352 0.61248L4.67977 0.59498L4.52039 0.78123L4.29914 0.47998L4.17539 0.46248L4.05164 0.78998L3.84789 0.630605L2.97977 0.58623L2.79352 0.231855ZM3.76758 6.34435L11.537 14.6369C11.537 14.6369 12.122 14.5569 12.3076 15.0181C12.4938 15.4875 12.1838 15.08 12.1838 15.08L11.9445 14.8937L15.0807 18.2956C15.0807 18.2956 14.6995 17.2412 15.2045 18.1981C15.7095 19.1462 16.5157 19.8369 16.5157 19.8369L16.6395 19.6506L16.1701 19.1281C16.1701 19.1281 15.8245 18.7206 16.312 18.9862L16.9232 19.775C16.9232 19.775 16.7813 20.2181 17.2507 20.6075L17.1532 20.28C17.1532 20.28 17.5607 20.5012 17.9063 21.1925L17.8888 20.9269L18.2345 21.2544L18.0926 21.4406L21.3263 24.9044C21.3263 24.9044 22.0795 26.685 26.1195 26.4194C26.1195 26.4194 28.042 23.9744 28.2013 20.3062L25.5257 18.5075L23.9663 18.3656L23.9838 18.1L24.5688 18.3394L24.7726 18.3569L24.427 18.0731L24.5863 17.8869L11.7407 9.14435C11.7407 9.14435 10.9345 9.18873 10.9701 8.65685L10.6426 8.63935L10.4563 8.4531L10.2701 8.59498L10.1726 8.49748L10.2963 8.29373L9.80008 8.0281L10.0395 8.32935L9.9157 8.39123L9.3932 7.86873L9.51695 7.72685L7.12508 6.04373C7.12508 6.04373 6.03508 4.87373 3.76758 6.34435ZM6.22972 19.2969L12.5466 25.4013L8.07284 26.8363L7.79847 26.6681C7.79847 26.6681 7.73348 26.9473 7.45936 26.861C7.51688 26.8401 7.58541 26.7636 7.65659 26.5706C7.65659 26.5706 7.58597 26.4113 7.48847 26.5706L7.41784 26.7213L7.40034 26.4288L7.21409 26.5525L7.07222 26.535L7.04534 26.8006L4.36972 24.8163C4.36972 24.8163 3.98847 24.6744 4.28972 23.7531C4.59097 22.8231 6.22972 19.2969 6.22972 19.2969ZM7.30222 26.7831C7.30222 26.7831 7.36639 26.8948 7.45936 26.861C7.41316 26.8465 7.361 26.8215 7.30222 26.7831ZM25.9229 7.30122L25.276 11.4562L24.9829 11.4731L24.8148 11.2518H24.5135C24.5135 11.2518 24.6016 10.6406 24.2741 10.6318C23.9554 10.6231 24.1235 10.8356 24.1235 10.8356L24.3804 10.9593L24.3098 11.1012L18.9941 7.02622C18.9941 7.02622 22.0423 6.2556 23.0254 5.9456C24.0085 5.6356 24.5048 6.00747 24.5048 6.00747L25.9135 7.03497L25.9048 7.1681L25.6923 7.10622C25.6923 7.10622 25.5154 7.20372 25.5948 7.51372C25.6741 7.82372 25.7541 7.46935 25.7541 7.46935L25.7366 7.30997L25.9229 7.30122Z" fill="white"/>
</svg>
