<svg width="24" height="24" viewBox="0 0 24 24" fill="none" xmlns="http://www.w3.org/2000/svg">
<mask id="mask0_667_2556" style="mask-type:alpha" maskUnits="userSpaceOnUse" x="0" y="0" width="24" height="24">
<rect width="24" height="24" fill="#D9D9D9"/>
</mask>
<g mask="url(#mask0_667_2556)">
<path fill-rule="evenodd" clip-rule="evenodd" d="M12 4C9.23858 4 7 6.23858 7 9C7 10.2138 7.43124 11.3242 8.1499 12.1903C8.60914 12.7438 9 13.4929 9 14.3662V16C9 16.5523 9.44772 17 10 17H14C14.5523 17 15 16.5523 15 16V14.3662C15 13.4929 15.3909 12.7438 15.8501 12.1903C16.5688 11.3242 17 10.2138 17 9C17 6.23858 14.7614 4 12 4ZM5 9C5 5.13401 8.13401 2 12 2C15.866 2 19 5.13401 19 9C19 10.6972 18.3947 12.2557 17.3893 13.4675C17.122 13.7896 17 14.1018 17 14.3662V16C17 17.6569 15.6569 19 14 19H10C8.34315 19 7 17.6569 7 16V14.3662C7 14.1018 6.87803 13.7896 6.61074 13.4675C5.60529 12.2557 5 10.6972 5 9ZM8 21C8 20.4477 8.44772 20 9 20H15C15.5523 20 16 20.4477 16 21C16 21.5523 15.5523 22 15 22H9C8.44772 22 8 21.5523 8 21Z" fill="#FCFCFC"/>
</g>
</svg>
