<svg width="24" height="24" viewBox="0 0 24 24" fill="none" xmlns="http://www.w3.org/2000/svg">
<g clip-path="url(#clip0_1778_5873)">
<path d="M24.0002 12.2659C24.0002 11.282 23.9185 10.5641 23.7417 9.81958H12.2451V14.2601H18.9934C18.8574 15.3637 18.1227 17.0256 16.49 18.1423L16.4671 18.291L20.1021 21.0428L20.354 21.0674C22.6668 18.98 24.0002 15.9088 24.0002 12.2659Z" fill="#4285F4"/>
<path d="M12.2445 23.9657C15.5505 23.9657 18.326 22.9021 20.3533 21.0674L16.4893 18.1424C15.4553 18.847 14.0676 19.3389 12.2445 19.3389C9.0064 19.3389 6.25812 17.2516 5.27843 14.3666L5.13483 14.3785L1.35509 17.237L1.30566 17.3712C3.31925 21.28 7.45531 23.9657 12.2445 23.9657Z" fill="#34A853"/>
<path d="M5.27886 14.3665C5.02036 13.622 4.87076 12.8242 4.87076 12C4.87076 11.1756 5.02036 10.3779 5.26526 9.6334L5.25841 9.47484L1.43131 6.57043L1.30609 6.62864C0.476196 8.25068 0 10.0722 0 12C0 13.9278 0.476196 15.7492 1.30609 17.3712L5.27886 14.3665Z" fill="#FBBC05"/>
<path d="M12.2445 4.66101C14.5438 4.66101 16.0947 5.63156 16.9791 6.44263L20.4349 3.14539C18.3125 1.21758 15.5505 0.0343018 12.2445 0.0343018C7.45531 0.0343018 3.31925 2.71992 1.30566 6.62869L5.26483 9.63345C6.25812 6.74839 9.0064 4.66101 12.2445 4.66101Z" fill="#EB4335"/>
</g>
<defs>
<clipPath id="clip0_1778_5873">
<rect width="24" height="24" fill="white"/>
</clipPath>
</defs>
</svg>
