<svg width="24" height="24" viewBox="0 0 24 24" fill="none" xmlns="http://www.w3.org/2000/svg">
<mask id="mask0_714_2127" style="mask-type:alpha" maskUnits="userSpaceOnUse" x="0" y="0" width="24" height="24">
<rect width="24" height="24" fill="#D9D9D9"/>
</mask>
<g mask="url(#mask0_714_2127)">
<path fill-rule="evenodd" clip-rule="evenodd" d="M5 4C5.55228 4 6 4.44772 6 5V6.57849C6.12018 6.47136 6.24184 6.36666 6.36411 6.26492C7.25305 5.52528 8.28248 4.8523 9.18464 4.51275C10.9169 3.86079 12.8215 3.82963 14.5742 4.42456C16.3268 5.01949 17.8189 6.20372 18.7963 7.77546C19.7736 9.3472 20.1758 11.2092 19.9342 13.0442C19.6926 14.8792 18.8222 16.5737 17.4714 17.8389C16.1205 19.1041 14.3727 19.8618 12.5259 19.9829C10.679 20.1039 8.84727 19.5808 7.34282 18.5028C5.83837 17.4247 4.75427 15.8583 4.27523 14.0706C4.13229 13.5371 4.44887 12.9888 4.98234 12.8458C5.51581 12.7029 6.06414 13.0194 6.20708 13.5529C6.56636 14.8937 7.37943 16.0685 8.50777 16.8771C9.63611 17.6856 11.0099 18.0779 12.3951 17.9872C13.7802 17.8964 15.091 17.3281 16.1042 16.3792C17.1173 15.4303 17.7701 14.1594 17.9513 12.7832C18.1325 11.4069 17.8309 10.0104 17.0979 8.83159C16.3648 7.65279 15.2457 6.76462 13.9313 6.31842C12.6168 5.87222 11.1883 5.8956 9.88914 6.38456C9.27562 6.61548 8.44147 7.13823 7.64332 7.80234C7.46901 7.94737 7.30156 8.09487 7.14293 8.24264H9.24264C9.79493 8.24264 10.2426 8.69036 10.2426 9.24264C10.2426 9.79493 9.79493 10.2426 9.24264 10.2426H5C4.44772 10.2426 4 9.79493 4 9.24264V5C4 4.44772 4.44772 4 5 4Z" fill="#FCFCFC"/>
<path d="M11.9788 13.4596L13.509 14.9732C13.8041 15.2651 14.2791 15.2651 14.5742 14.9732C14.8738 14.6768 14.8738 14.1928 14.5742 13.8964L13.3763 12.7115C12.916 12.2562 12.657 11.6357 12.657 10.9882V9.26923C12.657 8.8444 12.3126 8.5 11.8877 8.5C11.4629 8.5 11.1185 8.8444 11.1185 9.26923V11.3987C11.1185 12.173 11.4283 12.9151 11.9788 13.4596Z" fill="#FCFCFC"/>
</g>
</svg>
