<svg width="24" height="24" viewBox="0 0 24 24" fill="none" xmlns="http://www.w3.org/2000/svg">
<mask id="mask0_667_1959" style="mask-type:alpha" maskUnits="userSpaceOnUse" x="0" y="0" width="24" height="24">
<rect width="24" height="24" fill="#D9D9D9"/>
</mask>
<g mask="url(#mask0_667_1959)">
<path fill-rule="evenodd" clip-rule="evenodd" d="M11.2929 2.29289C11.6834 1.90237 12.3166 1.90237 12.7071 2.29289L21.7071 11.2929C22.0976 11.6834 22.0976 12.3166 21.7071 12.7071C21.3166 13.0976 20.6834 13.0976 20.2929 12.7071L20 12.4142V19C20 20.6569 18.6569 22 17 22H7C5.34315 22 4 20.6569 4 19V12.4142L3.70711 12.7071C3.31658 13.0976 2.68342 13.0976 2.29289 12.7071C1.90237 12.3166 1.90237 11.6834 2.29289 11.2929L4.29254 9.29325C4.29277 9.29301 4.29301 9.29277 4.29325 9.29254L11.2929 2.29289ZM6 10.4142V19C6 19.5523 6.44772 20 7 20H17C17.5523 20 18 19.5523 18 19V10.4142L12 4.41421L6 10.4142Z" fill="#FCFCFC"/>
</g>
</svg>
