<svg width="24" height="24" viewBox="0 0 24 24" fill="none" xmlns="http://www.w3.org/2000/svg">
<mask id="mask0_575_1105" style="mask-type:alpha" maskUnits="userSpaceOnUse" x="0" y="0" width="24" height="24">
<rect width="24" height="24" fill="#D9D9D9"/>
</mask>
<g mask="url(#mask0_575_1105)">
<path d="M3.11111 19C2.7963 19 2.53241 18.8882 2.31944 18.6646C2.10648 18.441 2 18.1639 2 17.8333C2 17.5028 2.10648 17.2257 2.31944 17.0021C2.53241 16.7785 2.7963 16.6667 3.11111 16.6667H20.8889C21.2037 16.6667 21.4676 16.7785 21.6806 17.0021C21.8935 17.2257 22 17.5028 22 17.8333C22 18.1639 21.8935 18.441 21.6806 18.6646C21.4676 18.8882 21.2037 19 20.8889 19H3.11111ZM3.11111 13.1667C2.7963 13.1667 2.53241 13.0549 2.31944 12.8312C2.10648 12.6076 2 12.3306 2 12C2 11.6694 2.10648 11.3924 2.31944 11.1688C2.53241 10.9451 2.7963 10.8333 3.11111 10.8333H20.8889C21.2037 10.8333 21.4676 10.9451 21.6806 11.1688C21.8935 11.3924 22 11.6694 22 12C22 12.3306 21.8935 12.6076 21.6806 12.8312C21.4676 13.0549 21.2037 13.1667 20.8889 13.1667H3.11111ZM3.11111 7.33333C2.7963 7.33333 2.53241 7.22153 2.31944 6.99792C2.10648 6.77431 2 6.49722 2 6.16667C2 5.83611 2.10648 5.55903 2.31944 5.33542C2.53241 5.11181 2.7963 5 3.11111 5H20.8889C21.2037 5 21.4676 5.11181 21.6806 5.33542C21.8935 5.55903 22 5.83611 22 6.16667C22 6.49722 21.8935 6.77431 21.6806 6.99792C21.4676 7.22153 21.2037 7.33333 20.8889 7.33333H3.11111Z" fill="#FCFCFC"/>
</g>
</svg>
