<svg width="137" height="32" viewBox="0 0 137 32" fill="none" xmlns="http://www.w3.org/2000/svg">
<g clip-path="url(#clip0_1656_15659)">
<path fill-rule="evenodd" clip-rule="evenodd" d="M77.5772 5L63.076 5.05468L63.0633 5.43313L63.0218 5.05468H48.6835L48.6292 5.6036L48.4652 5.05468H41.4878L40.9426 8.67734L40.7243 8.12842H40.5604L39.3614 5.05468H32.4926L32.3829 5.65828L32.1103 5.05468H25.2958L25.1872 5.65828L24.8603 5.05468L18.1001 5.10936L17.3366 8.07374H15.5372L15.2103 9.28201L12.1576 5.10936H5.56131L0 22.5108L5.94249 28H12.4302L13.4119 24.2669L13.8474 24.7065H15.5925L18.427 28H25.1329L25.2415 27.5058L25.6227 28H32.3286L32.4372 27.4511L32.7652 28H39.5797L40.0695 24.596L41.705 28H48.6292L48.6835 27.4511L48.8475 28H63.1304L63.1431 27.6623L63.1847 28H77.5229L77.5633 27.5754L77.5772 28H84.7186L84.8283 27.4511L84.7729 27.8896H91.8057L92.024 27.286L92.0783 27.8896H99.0025L99.2751 27.3407L99.3294 27.8896H106.198L106.525 27.3407L106.635 27.8896H113.449L117.374 22.291L117.21 21.4676H119.282L122.226 17.3507L124.788 27.9453H131.44L137 22.4004L136.836 21.7968L136.455 20.4791C136.346 20.04 136.183 19.6017 136.074 19.1626L135.637 17.6799C135.637 17.6799 134.819 15.0455 134.655 14.5514C134.437 13.8927 134.274 13.2342 134.056 12.5755V12.5198L136.836 9.17158L135.528 5H121.517L121.19 5.54892L121.026 5H106.907L106.635 5.6036L106.525 5H92.2423L92.0783 5.6036L92.024 5H77.6315L77.5899 5.46101L77.5772 5ZM122.117 5.98849H134.765L135.637 8.84245H131.985V8.9518C132.148 9.55561 132.311 10.2145 132.475 10.8183C132.638 11.4771 132.856 12.1355 133.02 12.7942C133.238 13.453 133.402 14.1123 133.62 14.8259C133.838 15.4846 134.056 16.1978 134.22 16.8565C134.329 17.2956 134.492 17.6803 134.601 18.1194C134.71 18.5586 134.874 18.9971 134.983 19.3813C135.092 19.8204 135.255 20.2598 135.365 20.6989C135.474 21.1381 135.637 21.5774 135.746 22.0165H130.077L126.478 8.84245H122.826L122.117 5.98849ZM76.5955 6.04316L76.6508 8.89712H69.3997L69.2358 18.7777H76.9234L77.032 22.0712H63.5669L64.0567 6.09784L76.5955 6.04316ZM93.1143 6.04316H105.653L108.379 22.0712H102.709L101.946 16.9112L99.8203 16.8565L100.528 22.0165H94.8584L93.1143 6.04316ZM107.67 6.04316H120.209L120.863 8.84245H113.504L114.157 12.0813H121.681L122.445 15.2644H114.812L116.229 22.0165H110.56L107.67 6.04316ZM18.8635 6.09784H24.0969L20.4436 22.0712H14.7748L16.4646 15.3201H14.4468L13.5748 18.6137H9.92261L10.849 15.2644L8.77798 15.3201L6.76024 22.0712H1.2543L6.32475 6.15252H11.4484L10.6307 9.00755L12.3758 9.06223L11.5038 12.2453H15.4829L16.3006 9.11691H18.1001L18.8635 6.09784ZM33.3646 6.09784H38.598L38.1071 9.06223L39.9066 9.11691L39.47 12.1906H41.4878L42.3598 6.09784H47.5932L45.7394 22.0712H40.1249L40.833 16.9669L38.9249 16.9112L39.4157 13.6176H37.3991L36.0362 22.0712H30.3662L33.3646 6.09784ZM49.6099 6.09784H62.0943L61.9314 8.89712H54.626L54.3534 12.1906H61.8217L61.6588 15.2644H54.0809L53.8626 18.723L61.5492 18.7777L61.3863 22.0712H47.9201L49.6099 6.09784ZM78.5589 6.09784H91.0977L91.6971 12.0266H89.8434L90.0073 13.7827H91.86L92.6778 22.0712H87.0089L86.5181 15.3201L84.3917 15.2644L84.8283 22.0712H79.1584L78.5589 6.09784ZM26.1135 6.15252H31.3469L28.1856 22.1259H22.57L26.1135 6.15252ZM96.331 8.56799L96.6036 10.5986H98.7843L98.8929 11.3673H97.8025L98.1848 14.4968H99.4923L99.3837 13.4536H101.346L101.51 14.5514H102.873L102.382 11.4219H101.292L101.183 10.6543L103.527 10.5986L103.2 8.56799H100.747L100.965 10.4345H99.0025L98.7299 8.56799H96.331ZM84.0648 8.89712L84.2831 12.1906H86.2998L86.0815 8.89712H84.0648ZM70.4901 15.4842H77.1619L77.2343 17.6799H70.4358L70.4901 15.4842Z" fill="white"/>
</g>
<defs>
<clipPath id="clip0_1656_15659">
<rect width="137" height="23" fill="white" transform="translate(0 5)"/>
</clipPath>
</defs>
</svg>
