<svg width="24" height="20" viewBox="0 0 24 20" fill="none" xmlns="http://www.w3.org/2000/svg">
<path d="M6 0L7.172 0.203C6.816 2.448 7.963 2.722 9.869 3.077C11.338 3.35 13 3.699 13 6.361V7H11.817V6.361C11.817 4.805 11.338 4.552 9.654 4.239C7.07 3.759 5.557 2.848 6 0ZM5.824 10C3.716 10 2 11.794 2 14C2 16.206 3.716 18 5.825 18C6.753 18 7.65 17.646 8.349 17.001C9.364 16.068 10.672 15.554 12.033 15.554C13.37 15.554 14.644 16.059 15.622 16.977C16.326 17.636 17.233 18 18.175 18C20.284 18 22 16.206 22 14C22 11.849 20.398 10.094 18.348 10H5.824ZM5.825 8L18.388 8.007C21.506 8.123 24 10.762 24 14C24 17.312 21.393 20 18.175 20C16.664 20 15.289 19.405 14.254 18.435C13.617 17.838 12.825 17.554 12.033 17.554C11.195 17.554 10.357 17.872 9.704 18.473C8.674 19.421 7.315 20 5.825 20C2.607 20 0 17.312 0 14C0 10.688 2.607 8 5.825 8ZM9 13H7V11H5V13H3V15H5V17H7V15H9V13ZM13 14H11V15H13V14ZM17 12C17 12.552 17.447 13 18 13C18.553 13 19 12.552 19 12C19 11.448 18.553 11 18 11C17.447 11 17 11.448 17 12ZM17 14C17 13.448 16.553 13 16 13C15.447 13 15 13.448 15 14C15 14.552 15.447 15 16 15C16.553 15 17 14.552 17 14ZM19 16C19 15.448 18.553 15 18 15C17.447 15 17 15.448 17 16C17 16.552 17.447 17 18 17C18.553 17 19 16.552 19 16ZM21 14C21 13.448 20.553 13 20 13C19.447 13 19 13.448 19 14C19 14.552 19.447 15 20 15C20.553 15 21 14.552 21 14Z" fill="#FCFCFC"/>
</svg>
